<svg width="32" height="32" viewBox="0 0 32 32" fill="none" xmlns="http://www.w3.org/2000/svg">
<path d="M11.4284 9.33333V6.4C11.4284 5.76348 11.6692 5.15303 12.0979 4.70294C12.5265 4.25286 13.1079 4 13.7141 4H18.2856C18.8918 4 19.4731 4.25286 19.9018 4.70294C20.3305 5.15303 20.5713 5.76348 20.5713 6.4V9.33333M25.3332 9.33333L23.9998 25.6C23.9998 26.2365 23.759 26.847 23.3304 27.2971C22.9017 27.7471 22.3203 28 21.7141 28H10.2856C9.67934 28 9.09796 27.7471 8.66931 27.2971C8.24065 26.847 7.99984 26.2365 7.99984 25.6L6.6665 9.33333H25.3332Z" stroke="#0C141E" stroke-width="1.2" stroke-linecap="round" stroke-linejoin="round"/>
<path d="M5.3335 9.3335H7.70387H26.6668" stroke="#0C141E" stroke-width="1.2" stroke-linecap="round" stroke-linejoin="round"/>
<path d="M13.3335 14.6665V21.3332" stroke="#0C141E" stroke-width="1.2" stroke-linecap="round" stroke-linejoin="round"/>
<path d="M18.6665 14.6665V21.3332" stroke="#0C141E" stroke-width="1.2" stroke-linecap="round" stroke-linejoin="round"/>
</svg>
