<svg width="15" height="16" viewBox="0 0 15 16" fill="none" xmlns="http://www.w3.org/2000/svg">
<path d="M0.75 3.5H2.25M2.25 3.5H14.25M2.25 3.5V14C2.25 14.3978 2.40804 14.7794 2.68934 15.0607C2.97064 15.342 3.35218 15.5 3.75 15.5H11.25C11.6478 15.5 12.0294 15.342 12.3107 15.0607C12.592 14.7794 12.75 14.3978 12.75 14V3.5H2.25ZM4.5 3.5V2C4.5 1.60218 4.65804 1.22064 4.93934 0.93934C5.22064 0.658035 5.60218 0.5 6 0.5H9C9.39782 0.5 9.77936 0.658035 10.0607 0.93934C10.342 1.22064 10.5 1.60218 10.5 2V3.5M6 7.25V11.75M9 7.25V11.75" stroke="#0C141E" stroke-linecap="round" stroke-linejoin="round"/>
</svg>
