<svg width="19" height="18" viewBox="0 0 19 18" fill="none" xmlns="http://www.w3.org/2000/svg">
<path d="M13.25 2.24998C13.447 2.053 13.6808 1.89674 13.9382 1.79014C14.1956 1.68353 14.4714 1.62866 14.75 1.62866C15.0286 1.62866 15.3044 1.68353 15.5618 1.79014C15.8192 1.89674 16.053 2.053 16.25 2.24998C16.447 2.44697 16.6032 2.68082 16.7098 2.93819C16.8165 3.19556 16.8713 3.47141 16.8713 3.74998C16.8713 4.02856 16.8165 4.30441 16.7098 4.56178C16.6032 4.81915 16.447 5.053 16.25 5.24998L6.125 15.375L2 16.5L3.125 12.375L13.25 2.24998Z" stroke="#0C141E" stroke-linecap="round" stroke-linejoin="round"/>
</svg>
