<svg width="32" height="32" viewBox="0 0 32 32" fill="none" xmlns="http://www.w3.org/2000/svg">
<mask id="path-1-inside-1_719_128" fill="white">
<path d="M28.5381 13.6185C27.7045 13.0945 27.0107 11.7333 26.3397 10.4142C25.9843 9.7047 25.6001 8.96386 25.1845 8.34107C22.621 4.59832 18.3868 2.36255 13.8587 2.36255C6.29727 2.36255 0.146484 8.51333 0.146484 16.0747C0.146484 17.1528 0.338019 18.2129 0.49221 19.0658C0.76084 20.5186 1.03549 22.0207 0.512688 23.5578C0.450048 23.712 0.472936 23.8879 0.574124 24.0397C0.670493 24.1842 0.818661 24.2649 0.975262 24.2649C0.976466 24.2649 0.977671 24.2649 0.978875 24.2649C1.08488 24.2782 1.20293 24.2782 1.31496 24.2782C2.63041 24.2782 4.91798 24.0059 6.43098 23.8252L6.98872 23.759L7.31878 23.7108C9.01247 23.4964 10.7664 23.1073 12.1192 21.7159C12.2324 21.6039 12.3457 21.4798 12.4601 21.3497C12.4974 21.3136 12.536 21.2751 12.5504 21.2473C12.5649 21.2329 12.5781 21.216 12.5938 21.2016C14.732 21.8533 16.8714 22.4941 19.0096 23.135C19.1457 23.1723 19.2072 23.2338 19.2192 23.3819C19.2806 23.8867 19.577 24.2071 20.0697 24.3179C20.2672 24.3553 20.2793 24.4408 20.2793 24.601C20.2672 25.0323 20.2672 25.4635 20.2793 25.8948C20.2793 26.5477 20.7226 26.991 21.3887 26.991C21.7091 27.003 22.0296 27.003 22.35 26.991C23.015 26.991 23.4462 26.5477 23.4595 25.8948C23.4715 25.4756 23.4715 25.0564 23.4595 24.6251C23.4595 24.4528 23.4715 24.3541 23.7064 24.3047C24.2244 24.1938 24.5195 23.7867 24.5195 23.2446C24.5316 22.9121 24.5316 22.5797 24.5195 22.246C24.5195 21.7039 24.2244 21.31 23.6944 21.1859C23.5101 21.1365 23.4607 21.0751 23.4607 20.8896V15.5507C23.4643 15.5507 23.4691 15.5495 23.4727 15.5495C23.5341 15.5435 23.598 15.5338 23.6642 15.5242C23.7305 15.5158 23.798 15.5049 23.8606 15.4989C24.0907 15.4869 24.322 15.4519 24.5448 15.417L24.5737 15.4122C25.2881 15.3038 27.5588 14.8809 28.4478 14.5665C28.6273 14.4918 28.7598 14.3244 28.7923 14.1196C28.8068 13.9184 28.7128 13.7281 28.5381 13.6185ZM13.3118 18.755C13.2202 18.8598 13.1274 18.9694 13.0359 19.0778C12.9552 19.173 12.8745 19.267 12.8022 19.3525C12.7781 19.3766 12.7588 19.3983 12.7396 19.4223C12.7263 19.4368 12.7143 19.4513 12.6829 19.485L12.2409 20.0066C11.9867 20.2969 11.7458 20.5716 11.5072 20.8221C11.4807 20.8474 11.4566 20.8751 11.4326 20.9016C11.4121 20.9245 11.394 20.9462 11.3699 20.9703C10.293 22.0713 8.9149 22.4423 7.17423 22.6604L6.52855 22.7459C5.22636 22.9025 3.08093 23.1591 1.71369 23.2085C2.00882 21.8942 1.85102 20.6523 1.65105 19.4886L13.1672 18.5382L13.5346 18.5068C13.4852 18.561 13.4346 18.6141 13.3876 18.6707C13.3732 18.6851 13.3599 18.7008 13.3467 18.7176C13.3371 18.7273 13.3274 18.7381 13.3118 18.755ZM20.0817 21.163C19.6878 21.2738 19.3915 21.4955 19.2686 21.9027C19.2312 22.0255 19.1951 22.087 19.0349 22.0388C17.1569 21.4726 15.2777 20.9064 13.3756 20.3294L13.472 20.2306L13.4575 20.227C13.5081 20.1668 13.5599 20.1054 13.6045 20.0475C13.6936 19.9452 13.7816 19.8416 13.8707 19.7392C14.0237 19.5609 14.1743 19.3838 14.3429 19.1971C14.3465 19.1911 14.3538 19.1826 14.3622 19.1742C14.3646 19.1706 14.3682 19.1682 14.3706 19.1658C14.3875 19.1501 14.4055 19.1308 14.4236 19.1055C14.4333 19.0947 14.4441 19.0839 14.4537 19.073C15.78 19.5043 17.1063 19.9452 18.4326 20.3872C18.9867 20.5716 19.542 20.7571 20.0962 20.9414C20.1696 20.9655 20.2564 20.9787 20.2684 21.0642C20.266 21.1883 20.1552 21.151 20.0817 21.163ZM15.4235 18.2623V18.2575L15.4247 18.2551H15.4355C15.4584 18.2165 15.4861 18.1828 15.509 18.1455C15.6559 17.9262 15.8113 17.7226 15.9776 17.5395C15.9896 17.5263 16.0017 17.5154 16.0125 17.5022C16.4534 17.1215 16.928 16.777 17.4436 16.5024C17.5845 16.4421 17.7291 16.3879 17.8797 16.3433C18.1085 16.2759 18.3386 16.2108 18.588 16.1783C18.5964 16.1771 18.6048 16.1747 18.6133 16.1735C18.7578 16.1578 18.906 16.1482 19.0542 16.1349C19.1831 16.1265 19.3108 16.1121 19.4396 16.106C19.6396 16.0976 19.8456 16.0952 20.0432 16.0747C20.048 16.0747 20.0552 16.0711 20.0612 16.0699C20.1251 16.0663 20.1745 16.0711 20.2082 16.0916C20.213 16.0952 20.2202 16.0976 20.2251 16.1012C20.2588 16.1325 20.2757 16.1819 20.2744 16.2699C20.2684 17.3986 20.2684 18.5261 20.2744 19.6548C20.2744 19.7271 20.2624 19.7693 20.2407 19.7982C20.2347 19.8054 20.2263 19.8126 20.219 19.8175C20.1889 19.8367 20.1468 19.8416 20.0709 19.8163C19.4396 19.6042 18.7964 19.3898 18.1628 19.1778C18.029 19.1332 17.8977 19.0887 17.764 19.0429C17.646 19.0031 17.5267 18.9646 17.4099 18.9248C16.7485 18.7056 16.0968 18.4864 15.4235 18.2623ZM22.3958 25.3009C22.3958 25.343 22.3946 25.3888 22.3946 25.4262C22.3934 25.4707 22.391 25.5069 22.3886 25.5442C22.3849 25.5984 22.3777 25.6454 22.3693 25.6852C22.3657 25.7044 22.3621 25.7273 22.3572 25.743C22.3416 25.7876 22.3187 25.8225 22.2898 25.8502C22.2765 25.8622 22.2572 25.8695 22.2404 25.8791C22.1982 25.9008 22.132 25.908 22.0645 25.9164C22.0525 25.9164 22.044 25.9201 22.0296 25.9201C22.0091 25.9309 21.9693 25.9309 21.9356 25.9309C21.8392 25.9345 21.7344 25.9357 21.5899 25.9333C21.5887 25.9333 21.5875 25.9333 21.5851 25.9333C21.5778 25.9333 21.5754 25.9297 21.5682 25.9297C21.4923 25.9273 21.4297 25.9213 21.3899 25.8924C21.3875 25.8899 21.3887 25.8827 21.3851 25.8803C21.3478 25.8466 21.3273 25.7972 21.3309 25.702C21.3333 25.6322 21.3297 25.5623 21.3309 25.4912C21.3333 25.3696 21.3381 25.2467 21.3381 25.131V24.5516C21.3381 24.5287 21.3429 24.5143 21.3441 24.495C21.3478 24.4613 21.3526 24.4299 21.3658 24.4083C21.3947 24.3637 21.4417 24.336 21.5333 24.33C21.5345 24.33 21.5345 24.33 21.5357 24.3288C21.661 24.3215 21.7634 24.3167 21.8549 24.3143C22.1561 24.3059 22.2934 24.3348 22.3524 24.4914C22.397 24.6143 22.3982 24.8166 22.3982 25.1395C22.397 25.2021 22.397 25.2491 22.3958 25.3009ZM23.4643 22.4676C23.4643 22.5315 23.4643 22.5809 23.4655 22.6351C23.4655 22.782 23.4619 22.8977 23.4474 22.9844C23.445 23.0001 23.4414 23.0157 23.4378 23.0314C23.433 23.0495 23.4305 23.0699 23.4245 23.0844C23.4197 23.0988 23.4101 23.1073 23.404 23.1193C23.3739 23.1735 23.3294 23.2121 23.2607 23.2338C23.2137 23.2482 23.1523 23.2579 23.0836 23.2627C22.9752 23.2711 22.8415 23.2723 22.662 23.2723C22.397 23.2723 22.132 23.2723 21.867 23.2723C21.414 23.2723 20.9611 23.2639 20.5081 23.2759C20.4226 23.2783 20.3744 23.2603 20.3371 23.2301C20.3287 23.2229 20.3178 23.2145 20.3118 23.2049C20.2841 23.1651 20.2684 23.1133 20.2672 23.0314C20.2648 22.929 20.2636 22.8399 20.2624 22.7616C20.2636 22.2098 20.3431 22.2098 21.0538 22.2098C21.7682 22.2098 22.4958 22.2219 23.2101 22.2098C23.2197 22.2098 23.2258 22.2122 23.2354 22.2122C23.3053 22.2147 23.3559 22.2267 23.3896 22.2532C23.4028 22.264 23.4137 22.2845 23.4233 22.3002C23.4462 22.3423 23.4643 22.3881 23.4643 22.4676ZM22.3982 15.629V17.5154C22.3982 18.6369 22.3861 19.7464 22.3982 20.8679C22.4102 21.1016 22.3368 21.163 22.1151 21.163C21.3393 21.151 21.3393 21.163 21.3393 20.3872C21.3393 18.8249 21.3393 17.2408 21.3273 15.6892C21.3285 15.6892 21.3309 15.6892 21.3321 15.6892L21.4465 15.6844V15.682C21.4718 15.6808 21.4959 15.6796 21.52 15.6784C21.5911 15.6748 21.6598 15.6712 21.7224 15.6639C21.7634 15.6639 21.7995 15.6615 21.838 15.6579C21.8682 15.6555 21.8995 15.6519 21.9416 15.6519C22.0127 15.6459 22.085 15.6435 22.1609 15.6398C22.2006 15.6386 22.2404 15.6374 22.2825 15.635V15.6398L22.3982 15.629ZM24.4087 14.3666C24.2063 14.4039 24.0268 14.428 23.8401 14.4388C23.7739 14.4449 23.71 14.4545 23.6462 14.4641C23.5799 14.4738 23.5161 14.4834 23.451 14.4894C23.3438 14.4955 23.2366 14.5051 23.1306 14.5135C23.015 14.5232 22.9005 14.534 22.7801 14.5388C22.65 14.5521 22.5295 14.5641 22.3982 14.5641H22.2777V14.5714C22.2271 14.5738 22.1777 14.575 22.1284 14.5774C22.0452 14.5798 21.9621 14.5834 21.8923 14.5894C21.8284 14.5894 21.7682 14.5894 21.72 14.6027C21.5742 14.5991 21.4574 14.6135 21.3189 14.628C21.3176 14.628 21.3164 14.628 21.3152 14.628L20.5539 14.6701V14.6737C20.5093 14.6774 20.4636 14.681 20.4166 14.6834C20.407 14.6846 20.3985 14.6846 20.3901 14.6858L20.3925 14.6713L20.2395 14.6894C19.7444 14.7472 19.1819 14.8123 18.641 14.9376C18.5422 14.9568 18.4519 14.9845 18.3567 15.0122L18.2627 15.0375C17.9098 15.1363 17.5665 15.2712 17.2268 15.4315C16.4124 15.7579 15.7222 16.2217 15.1657 16.8445C14.9862 17.0059 14.8067 17.1553 14.6248 17.3384L14.6164 17.3468L1.46434 18.4334C1.33183 17.6913 1.21137 16.8987 1.21137 16.0735C1.21137 9.10118 6.88512 3.42743 13.8574 3.42743C18.0327 3.42743 21.938 5.48974 24.3063 8.94458C24.6171 9.39752 24.9122 9.96369 25.2242 10.5624L25.3977 10.89C25.9036 11.8935 26.4734 13.0222 27.1757 13.8233C26.2783 14.0317 25.0773 14.263 24.4087 14.3666Z"/>
</mask>
<path d="M28.5381 13.6185C27.7045 13.0945 27.0107 11.7333 26.3397 10.4142C25.9843 9.7047 25.6001 8.96386 25.1845 8.34107C22.621 4.59832 18.3868 2.36255 13.8587 2.36255C6.29727 2.36255 0.146484 8.51333 0.146484 16.0747C0.146484 17.1528 0.338019 18.2129 0.49221 19.0658C0.76084 20.5186 1.03549 22.0207 0.512688 23.5578C0.450048 23.712 0.472936 23.8879 0.574124 24.0397C0.670493 24.1842 0.818661 24.2649 0.975262 24.2649C0.976466 24.2649 0.977671 24.2649 0.978875 24.2649C1.08488 24.2782 1.20293 24.2782 1.31496 24.2782C2.63041 24.2782 4.91798 24.0059 6.43098 23.8252L6.98872 23.759L7.31878 23.7108C9.01247 23.4964 10.7664 23.1073 12.1192 21.7159C12.2324 21.6039 12.3457 21.4798 12.4601 21.3497C12.4974 21.3136 12.536 21.2751 12.5504 21.2473C12.5649 21.2329 12.5781 21.216 12.5938 21.2016C14.732 21.8533 16.8714 22.4941 19.0096 23.135C19.1457 23.1723 19.2072 23.2338 19.2192 23.3819C19.2806 23.8867 19.577 24.2071 20.0697 24.3179C20.2672 24.3553 20.2793 24.4408 20.2793 24.601C20.2672 25.0323 20.2672 25.4635 20.2793 25.8948C20.2793 26.5477 20.7226 26.991 21.3887 26.991C21.7091 27.003 22.0296 27.003 22.35 26.991C23.015 26.991 23.4462 26.5477 23.4595 25.8948C23.4715 25.4756 23.4715 25.0564 23.4595 24.6251C23.4595 24.4528 23.4715 24.3541 23.7064 24.3047C24.2244 24.1938 24.5195 23.7867 24.5195 23.2446C24.5316 22.9121 24.5316 22.5797 24.5195 22.246C24.5195 21.7039 24.2244 21.31 23.6944 21.1859C23.5101 21.1365 23.4607 21.0751 23.4607 20.8896V15.5507C23.4643 15.5507 23.4691 15.5495 23.4727 15.5495C23.5341 15.5435 23.598 15.5338 23.6642 15.5242C23.7305 15.5158 23.798 15.5049 23.8606 15.4989C24.0907 15.4869 24.322 15.4519 24.5448 15.417L24.5737 15.4122C25.2881 15.3038 27.5588 14.8809 28.4478 14.5665C28.6273 14.4918 28.7598 14.3244 28.7923 14.1196C28.8068 13.9184 28.7128 13.7281 28.5381 13.6185ZM13.3118 18.755C13.2202 18.8598 13.1274 18.9694 13.0359 19.0778C12.9552 19.173 12.8745 19.267 12.8022 19.3525C12.7781 19.3766 12.7588 19.3983 12.7396 19.4223C12.7263 19.4368 12.7143 19.4513 12.6829 19.485L12.2409 20.0066C11.9867 20.2969 11.7458 20.5716 11.5072 20.8221C11.4807 20.8474 11.4566 20.8751 11.4326 20.9016C11.4121 20.9245 11.394 20.9462 11.3699 20.9703C10.293 22.0713 8.9149 22.4423 7.17423 22.6604L6.52855 22.7459C5.22636 22.9025 3.08093 23.1591 1.71369 23.2085C2.00882 21.8942 1.85102 20.6523 1.65105 19.4886L13.1672 18.5382L13.5346 18.5068C13.4852 18.561 13.4346 18.6141 13.3876 18.6707C13.3732 18.6851 13.3599 18.7008 13.3467 18.7176C13.3371 18.7273 13.3274 18.7381 13.3118 18.755ZM20.0817 21.163C19.6878 21.2738 19.3915 21.4955 19.2686 21.9027C19.2312 22.0255 19.1951 22.087 19.0349 22.0388C17.1569 21.4726 15.2777 20.9064 13.3756 20.3294L13.472 20.2306L13.4575 20.227C13.5081 20.1668 13.5599 20.1054 13.6045 20.0475C13.6936 19.9452 13.7816 19.8416 13.8707 19.7392C14.0237 19.5609 14.1743 19.3838 14.3429 19.1971C14.3465 19.1911 14.3538 19.1826 14.3622 19.1742C14.3646 19.1706 14.3682 19.1682 14.3706 19.1658C14.3875 19.1501 14.4055 19.1308 14.4236 19.1055C14.4333 19.0947 14.4441 19.0839 14.4537 19.073C15.78 19.5043 17.1063 19.9452 18.4326 20.3872C18.9867 20.5716 19.542 20.7571 20.0962 20.9414C20.1696 20.9655 20.2564 20.9787 20.2684 21.0642C20.266 21.1883 20.1552 21.151 20.0817 21.163ZM15.4235 18.2623V18.2575L15.4247 18.2551H15.4355C15.4584 18.2165 15.4861 18.1828 15.509 18.1455C15.6559 17.9262 15.8113 17.7226 15.9776 17.5395C15.9896 17.5263 16.0017 17.5154 16.0125 17.5022C16.4534 17.1215 16.928 16.777 17.4436 16.5024C17.5845 16.4421 17.7291 16.3879 17.8797 16.3433C18.1085 16.2759 18.3386 16.2108 18.588 16.1783C18.5964 16.1771 18.6048 16.1747 18.6133 16.1735C18.7578 16.1578 18.906 16.1482 19.0542 16.1349C19.1831 16.1265 19.3108 16.1121 19.4396 16.106C19.6396 16.0976 19.8456 16.0952 20.0432 16.0747C20.048 16.0747 20.0552 16.0711 20.0612 16.0699C20.1251 16.0663 20.1745 16.0711 20.2082 16.0916C20.213 16.0952 20.2202 16.0976 20.2251 16.1012C20.2588 16.1325 20.2757 16.1819 20.2744 16.2699C20.2684 17.3986 20.2684 18.5261 20.2744 19.6548C20.2744 19.7271 20.2624 19.7693 20.2407 19.7982C20.2347 19.8054 20.2263 19.8126 20.219 19.8175C20.1889 19.8367 20.1468 19.8416 20.0709 19.8163C19.4396 19.6042 18.7964 19.3898 18.1628 19.1778C18.029 19.1332 17.8977 19.0887 17.764 19.0429C17.646 19.0031 17.5267 18.9646 17.4099 18.9248C16.7485 18.7056 16.0968 18.4864 15.4235 18.2623ZM22.3958 25.3009C22.3958 25.343 22.3946 25.3888 22.3946 25.4262C22.3934 25.4707 22.391 25.5069 22.3886 25.5442C22.3849 25.5984 22.3777 25.6454 22.3693 25.6852C22.3657 25.7044 22.3621 25.7273 22.3572 25.743C22.3416 25.7876 22.3187 25.8225 22.2898 25.8502C22.2765 25.8622 22.2572 25.8695 22.2404 25.8791C22.1982 25.9008 22.132 25.908 22.0645 25.9164C22.0525 25.9164 22.044 25.9201 22.0296 25.9201C22.0091 25.9309 21.9693 25.9309 21.9356 25.9309C21.8392 25.9345 21.7344 25.9357 21.5899 25.9333C21.5887 25.9333 21.5875 25.9333 21.5851 25.9333C21.5778 25.9333 21.5754 25.9297 21.5682 25.9297C21.4923 25.9273 21.4297 25.9213 21.3899 25.8924C21.3875 25.8899 21.3887 25.8827 21.3851 25.8803C21.3478 25.8466 21.3273 25.7972 21.3309 25.702C21.3333 25.6322 21.3297 25.5623 21.3309 25.4912C21.3333 25.3696 21.3381 25.2467 21.3381 25.131V24.5516C21.3381 24.5287 21.3429 24.5143 21.3441 24.495C21.3478 24.4613 21.3526 24.4299 21.3658 24.4083C21.3947 24.3637 21.4417 24.336 21.5333 24.33C21.5345 24.33 21.5345 24.33 21.5357 24.3288C21.661 24.3215 21.7634 24.3167 21.8549 24.3143C22.1561 24.3059 22.2934 24.3348 22.3524 24.4914C22.397 24.6143 22.3982 24.8166 22.3982 25.1395C22.397 25.2021 22.397 25.2491 22.3958 25.3009ZM23.4643 22.4676C23.4643 22.5315 23.4643 22.5809 23.4655 22.6351C23.4655 22.782 23.4619 22.8977 23.4474 22.9844C23.445 23.0001 23.4414 23.0157 23.4378 23.0314C23.433 23.0495 23.4305 23.0699 23.4245 23.0844C23.4197 23.0988 23.4101 23.1073 23.404 23.1193C23.3739 23.1735 23.3294 23.2121 23.2607 23.2338C23.2137 23.2482 23.1523 23.2579 23.0836 23.2627C22.9752 23.2711 22.8415 23.2723 22.662 23.2723C22.397 23.2723 22.132 23.2723 21.867 23.2723C21.414 23.2723 20.9611 23.2639 20.5081 23.2759C20.4226 23.2783 20.3744 23.2603 20.3371 23.2301C20.3287 23.2229 20.3178 23.2145 20.3118 23.2049C20.2841 23.1651 20.2684 23.1133 20.2672 23.0314C20.2648 22.929 20.2636 22.8399 20.2624 22.7616C20.2636 22.2098 20.3431 22.2098 21.0538 22.2098C21.7682 22.2098 22.4958 22.2219 23.2101 22.2098C23.2197 22.2098 23.2258 22.2122 23.2354 22.2122C23.3053 22.2147 23.3559 22.2267 23.3896 22.2532C23.4028 22.264 23.4137 22.2845 23.4233 22.3002C23.4462 22.3423 23.4643 22.3881 23.4643 22.4676ZM22.3982 15.629V17.5154C22.3982 18.6369 22.3861 19.7464 22.3982 20.8679C22.4102 21.1016 22.3368 21.163 22.1151 21.163C21.3393 21.151 21.3393 21.163 21.3393 20.3872C21.3393 18.8249 21.3393 17.2408 21.3273 15.6892C21.3285 15.6892 21.3309 15.6892 21.3321 15.6892L21.4465 15.6844V15.682C21.4718 15.6808 21.4959 15.6796 21.52 15.6784C21.5911 15.6748 21.6598 15.6712 21.7224 15.6639C21.7634 15.6639 21.7995 15.6615 21.838 15.6579C21.8682 15.6555 21.8995 15.6519 21.9416 15.6519C22.0127 15.6459 22.085 15.6435 22.1609 15.6398C22.2006 15.6386 22.2404 15.6374 22.2825 15.635V15.6398L22.3982 15.629ZM24.4087 14.3666C24.2063 14.4039 24.0268 14.428 23.8401 14.4388C23.7739 14.4449 23.71 14.4545 23.6462 14.4641C23.5799 14.4738 23.5161 14.4834 23.451 14.4894C23.3438 14.4955 23.2366 14.5051 23.1306 14.5135C23.015 14.5232 22.9005 14.534 22.7801 14.5388C22.65 14.5521 22.5295 14.5641 22.3982 14.5641H22.2777V14.5714C22.2271 14.5738 22.1777 14.575 22.1284 14.5774C22.0452 14.5798 21.9621 14.5834 21.8923 14.5894C21.8284 14.5894 21.7682 14.5894 21.72 14.6027C21.5742 14.5991 21.4574 14.6135 21.3189 14.628C21.3176 14.628 21.3164 14.628 21.3152 14.628L20.5539 14.6701V14.6737C20.5093 14.6774 20.4636 14.681 20.4166 14.6834C20.407 14.6846 20.3985 14.6846 20.3901 14.6858L20.3925 14.6713L20.2395 14.6894C19.7444 14.7472 19.1819 14.8123 18.641 14.9376C18.5422 14.9568 18.4519 14.9845 18.3567 15.0122L18.2627 15.0375C17.9098 15.1363 17.5665 15.2712 17.2268 15.4315C16.4124 15.7579 15.7222 16.2217 15.1657 16.8445C14.9862 17.0059 14.8067 17.1553 14.6248 17.3384L14.6164 17.3468L1.46434 18.4334C1.33183 17.6913 1.21137 16.8987 1.21137 16.0735C1.21137 9.10118 6.88512 3.42743 13.8574 3.42743C18.0327 3.42743 21.938 5.48974 24.3063 8.94458C24.6171 9.39752 24.9122 9.96369 25.2242 10.5624L25.3977 10.89C25.9036 11.8935 26.4734 13.0222 27.1757 13.8233C26.2783 14.0317 25.0773 14.263 24.4087 14.3666Z" fill="white" stroke="white" stroke-width="2.40924" mask="url(#path-1-inside-1_719_128)"/>
<path d="M5.01511 15.316L5.01391 15.5569V15.8098C5.01391 16.0713 4.80069 16.2845 4.53929 16.2845H4.41039C4.14899 16.2845 3.93577 16.0713 3.93577 15.8098L3.93457 15.5569V15.316C3.93457 15.3125 3.93485 15.309 3.93514 15.3054C3.93545 15.3015 3.93577 15.2974 3.93577 15.2931V15.316V15.5569V15.6677H3.94782H4.4116V15.6822M5.01511 15.316C5.01511 10.3481 9.05661 6.30662 14.0245 6.30662H13.6631V6.3018V5.84595C8.67985 6.03548 4.67399 10.0812 4.54994 15.0803L4.54416 15.3136L5.01511 15.316ZM5.01511 15.316H4.5441L4.53818 15.5545L4.53812 15.5569L4.53708 15.5986L4.53748 15.6822H4.53929C4.53869 15.6822 4.53808 15.6822 4.53748 15.6822L4.53808 15.807L4.53808 15.8086C4.53808 15.808 4.53806 15.8075 4.53805 15.807C4.53706 15.7606 4.51209 15.7208 4.47484 15.6992C4.43743 15.7209 4.4124 15.7609 4.41162 15.8076C4.41161 15.8083 4.4116 15.8091 4.4116 15.8098V15.8076V15.6822M4.4116 15.6822C4.4112 15.6822 4.4108 15.6822 4.41039 15.6822L4.4116 15.6822ZM4.41602 15.0654C4.54623 10.0005 8.61242 5.89855 13.6631 5.71101V5.69949H13.6643L4.41602 15.0654ZM4.41602 15.0654H3.94782H4.41602ZM14.2654 5.8332V6.3018H14.4316C14.6918 6.3018 14.905 6.08858 14.905 5.82718V5.70431C14.9062 5.44291 14.693 5.23089 14.4328 5.23089L14.2654 5.8332ZM14.2654 5.8332H14.2666M14.2654 5.8332H14.2666M14.4316 5.8332C14.432 5.83321 14.4324 5.8332 14.4328 5.8332H14.4316ZM14.4316 5.8332H14.2666M14.4316 5.8332H14.2666" fill="white" stroke="white" stroke-width="1.20462"/>
</svg>
