<svg width="33" height="32" viewBox="0 0 33 32" fill="none" xmlns="http://www.w3.org/2000/svg">
<path d="M17.8708 2.66666C19.3708 2.67066 20.1321 2.67866 20.7894 2.69732L21.0481 2.70666C21.3468 2.71732 21.6414 2.73066 21.9974 2.74666C23.4161 2.81332 24.3841 3.03732 25.2334 3.36666C26.1134 3.70532 26.8548 4.16399 27.5961 4.90399C28.2744 5.5703 28.799 6.37662 29.1334 7.26666C29.4628 8.11599 29.6868 9.08399 29.7534 10.504C29.7694 10.8587 29.7828 11.1533 29.7934 11.4533L29.8014 11.712C29.8214 12.368 29.8294 13.1293 29.8321 14.6293L29.8334 15.624V17.3707C29.8367 18.3432 29.8265 19.3157 29.8028 20.288L29.7948 20.5467C29.7841 20.8467 29.7708 21.1413 29.7548 21.496C29.6881 22.916 29.4614 23.8827 29.1334 24.7333C28.799 25.6234 28.2744 26.4297 27.5961 27.096C26.9298 27.7743 26.1235 28.2989 25.2334 28.6333C24.3841 28.9627 23.4161 29.1867 21.9974 29.2533L21.0481 29.2933L20.7894 29.3013C20.1321 29.32 19.3708 29.3293 17.8708 29.332L16.8761 29.3333H15.1308C14.1578 29.3368 13.1848 29.3265 12.2121 29.3027L11.9534 29.2947C11.6369 29.2827 11.3205 29.2689 11.0041 29.2533C9.58544 29.1867 8.61744 28.9627 7.76677 28.6333C6.87721 28.2987 6.07136 27.7741 5.40544 27.096C4.7267 26.4298 4.20159 25.6235 3.86677 24.7333C3.53744 23.884 3.31344 22.916 3.24677 21.496L3.20677 20.5467L3.20011 20.288C3.17553 19.3157 3.16442 18.3432 3.16677 17.3707V14.6293C3.16308 13.6568 3.17286 12.6843 3.19611 11.712L3.20544 11.4533C3.21611 11.1533 3.22944 10.8587 3.24544 10.504C3.31211 9.08399 3.53611 8.11732 3.86544 7.26666C4.20103 6.37625 4.72707 5.5699 5.40677 4.90399C6.07231 4.22606 6.87769 3.70142 7.76677 3.36666C8.61744 3.03732 9.58411 2.81332 11.0041 2.74666C11.3588 2.73066 11.6548 2.71732 11.9534 2.70666L12.2121 2.69866C13.1844 2.67497 14.1569 2.66474 15.1294 2.66799L17.8708 2.66666ZM16.5001 9.33332C14.732 9.33332 13.0363 10.0357 11.7861 11.2859C10.5358 12.5362 9.83344 14.2319 9.83344 16C9.83344 17.7681 10.5358 19.4638 11.7861 20.714C13.0363 21.9643 14.732 22.6667 16.5001 22.6667C18.2682 22.6667 19.9639 21.9643 21.2142 20.714C22.4644 19.4638 23.1668 17.7681 23.1668 16C23.1668 14.2319 22.4644 12.5362 21.2142 11.2859C19.9639 10.0357 18.2682 9.33332 16.5001 9.33332ZM16.5001 12C17.0254 11.9999 17.5456 12.1033 18.0309 12.3042C18.5162 12.5052 18.9572 12.7997 19.3287 13.1711C19.7002 13.5425 19.9949 13.9834 20.196 14.4686C20.3971 14.9539 20.5007 15.474 20.5008 15.9993C20.5009 16.5246 20.3975 17.0448 20.1965 17.5301C19.9956 18.0154 19.701 18.4564 19.3297 18.8279C18.9583 19.1994 18.5174 19.4942 18.0321 19.6953C17.5469 19.8964 17.0267 19.9999 16.5014 20C15.4406 20 14.4232 19.5786 13.673 18.8284C12.9229 18.0783 12.5014 17.0609 12.5014 16C12.5014 14.9391 12.9229 13.9217 13.673 13.1716C14.4232 12.4214 15.4406 12 16.5014 12M23.5014 7.33332C23.0594 7.33332 22.6355 7.50892 22.3229 7.82148C22.0104 8.13404 21.8348 8.55796 21.8348 8.99999C21.8348 9.44202 22.0104 9.86594 22.3229 10.1785C22.6355 10.4911 23.0594 10.6667 23.5014 10.6667C23.9435 10.6667 24.3674 10.4911 24.68 10.1785C24.9925 9.86594 25.1681 9.44202 25.1681 8.99999C25.1681 8.55796 24.9925 8.13404 24.68 7.82148C24.3674 7.50892 23.9435 7.33332 23.5014 7.33332Z" fill="white"/>
</svg>
