<svg width="32" height="32" viewBox="0 0 32 32" fill="none" xmlns="http://www.w3.org/2000/svg">
<mask id="path-1-inside-1_719_2403" fill="white">
<path d="M18.2536 5.44637H17.6403V4.83304C17.6405 4.68416 17.6113 4.53671 17.5544 4.39913C17.4975 4.26154 17.414 4.13654 17.3087 4.03126C17.2035 3.92599 17.0784 3.84251 16.9409 3.78562C16.8033 3.72873 16.6558 3.69953 16.507 3.69971H15.5203C15.3714 3.69953 15.224 3.72873 15.0864 3.78562C14.9488 3.84251 14.8238 3.92599 14.7185 4.03126C14.6132 4.13654 14.5298 4.26154 14.4729 4.39913C14.416 4.53671 14.3868 4.68416 14.387 4.83304V5.44637H13.7736C13.4702 5.44847 13.1797 5.56995 12.9651 5.78454C12.7505 5.99913 12.629 6.28957 12.627 6.59304V7.56637C12.629 7.86984 12.7505 8.16028 12.9651 8.37487C13.1797 8.58946 13.4702 8.71095 13.7736 8.71304H14.387V9.31304C14.3854 9.46294 14.4135 9.61167 14.4697 9.75064C14.526 9.8896 14.6092 10.016 14.7145 10.1227C14.8199 10.2293 14.9454 10.314 15.0837 10.3718C15.222 10.4297 15.3704 10.4595 15.5203 10.4597H16.507C16.6569 10.4595 16.8053 10.4297 16.9435 10.3718C17.0818 10.314 17.2073 10.2293 17.3127 10.1227C17.4181 10.016 17.5013 9.8896 17.5575 9.75064C17.6137 9.61167 17.6419 9.46294 17.6403 9.31304V8.71304H18.2536C18.5571 8.71095 18.8475 8.58946 19.0621 8.37487C19.2767 8.16028 19.3982 7.86984 19.4003 7.56637V6.59304C19.3982 6.28957 19.2767 5.99913 19.0621 5.78454C18.8475 5.56995 18.5571 5.44847 18.2536 5.44637ZM18.4536 7.56637C18.4523 7.61899 18.4308 7.66908 18.3935 7.7063C18.3563 7.74352 18.3062 7.76502 18.2536 7.76637H17.1736C17.1122 7.76602 17.0514 7.77785 16.9946 7.80118C16.9378 7.8245 16.8863 7.85886 16.8428 7.90227C16.7994 7.94567 16.7651 7.99726 16.7418 8.05404C16.7184 8.11082 16.7066 8.17166 16.707 8.23304V9.31304C16.7084 9.36776 16.6882 9.42085 16.6508 9.46078C16.6133 9.50072 16.5617 9.52429 16.507 9.52637H15.5203C15.4656 9.52429 15.4139 9.50072 15.3765 9.46078C15.339 9.42085 15.3188 9.36776 15.3203 9.31304V8.23304C15.3189 8.1097 15.2693 7.99181 15.1821 7.90459C15.0949 7.81737 14.977 7.76776 14.8536 7.76637H13.7736C13.721 7.76502 13.6709 7.74352 13.6337 7.7063C13.5965 7.66908 13.575 7.61899 13.5736 7.56637V6.59304C13.5731 6.56663 13.5779 6.54038 13.5877 6.51586C13.5976 6.49135 13.6123 6.46909 13.631 6.45041C13.6497 6.43173 13.6719 6.41701 13.6964 6.40716C13.721 6.3973 13.7472 6.3925 13.7736 6.39304H14.8536C14.979 6.39093 15.0985 6.33926 15.186 6.24932C15.2734 6.15938 15.3217 6.03848 15.3203 5.91304V4.83304C15.3216 4.78042 15.3431 4.73033 15.3804 4.69311C15.4176 4.6559 15.4677 4.63439 15.5203 4.63304H16.507C16.5596 4.63439 16.6097 4.6559 16.6469 4.69311C16.6841 4.73033 16.7056 4.78042 16.707 4.83304V5.91304C16.7052 5.97544 16.7159 6.03756 16.7386 6.09572C16.7612 6.15389 16.7953 6.20692 16.8388 6.25168C16.8823 6.29643 16.9344 6.33201 16.9919 6.35629C17.0494 6.38057 17.1112 6.39307 17.1736 6.39304H18.2536C18.28 6.3925 18.3063 6.3973 18.3308 6.40716C18.3553 6.41701 18.3776 6.43173 18.3963 6.45041C18.4149 6.46909 18.4296 6.49135 18.4395 6.51586C18.4494 6.54038 18.4542 6.56663 18.4536 6.59304V7.56637Z"/>
</mask>
<path d="M18.2536 5.44637H17.6403V4.83304C17.6405 4.68416 17.6113 4.53671 17.5544 4.39913C17.4975 4.26154 17.414 4.13654 17.3087 4.03126C17.2035 3.92599 17.0784 3.84251 16.9409 3.78562C16.8033 3.72873 16.6558 3.69953 16.507 3.69971H15.5203C15.3714 3.69953 15.224 3.72873 15.0864 3.78562C14.9488 3.84251 14.8238 3.92599 14.7185 4.03126C14.6132 4.13654 14.5298 4.26154 14.4729 4.39913C14.416 4.53671 14.3868 4.68416 14.387 4.83304V5.44637H13.7736C13.4702 5.44847 13.1797 5.56995 12.9651 5.78454C12.7505 5.99913 12.629 6.28957 12.627 6.59304V7.56637C12.629 7.86984 12.7505 8.16028 12.9651 8.37487C13.1797 8.58946 13.4702 8.71095 13.7736 8.71304H14.387V9.31304C14.3854 9.46294 14.4135 9.61167 14.4697 9.75064C14.526 9.8896 14.6092 10.016 14.7145 10.1227C14.8199 10.2293 14.9454 10.314 15.0837 10.3718C15.222 10.4297 15.3704 10.4595 15.5203 10.4597H16.507C16.6569 10.4595 16.8053 10.4297 16.9435 10.3718C17.0818 10.314 17.2073 10.2293 17.3127 10.1227C17.4181 10.016 17.5013 9.8896 17.5575 9.75064C17.6137 9.61167 17.6419 9.46294 17.6403 9.31304V8.71304H18.2536C18.5571 8.71095 18.8475 8.58946 19.0621 8.37487C19.2767 8.16028 19.3982 7.86984 19.4003 7.56637V6.59304C19.3982 6.28957 19.2767 5.99913 19.0621 5.78454C18.8475 5.56995 18.5571 5.44847 18.2536 5.44637ZM18.4536 7.56637C18.4523 7.61899 18.4308 7.66908 18.3935 7.7063C18.3563 7.74352 18.3062 7.76502 18.2536 7.76637H17.1736C17.1122 7.76602 17.0514 7.77785 16.9946 7.80118C16.9378 7.8245 16.8863 7.85886 16.8428 7.90227C16.7994 7.94567 16.7651 7.99726 16.7418 8.05404C16.7184 8.11082 16.7066 8.17166 16.707 8.23304V9.31304C16.7084 9.36776 16.6882 9.42085 16.6508 9.46078C16.6133 9.50072 16.5617 9.52429 16.507 9.52637H15.5203C15.4656 9.52429 15.4139 9.50072 15.3765 9.46078C15.339 9.42085 15.3188 9.36776 15.3203 9.31304V8.23304C15.3189 8.1097 15.2693 7.99181 15.1821 7.90459C15.0949 7.81737 14.977 7.76776 14.8536 7.76637H13.7736C13.721 7.76502 13.6709 7.74352 13.6337 7.7063C13.5965 7.66908 13.575 7.61899 13.5736 7.56637V6.59304C13.5731 6.56663 13.5779 6.54038 13.5877 6.51586C13.5976 6.49135 13.6123 6.46909 13.631 6.45041C13.6497 6.43173 13.6719 6.41701 13.6964 6.40716C13.721 6.3973 13.7472 6.3925 13.7736 6.39304H14.8536C14.979 6.39093 15.0985 6.33926 15.186 6.24932C15.2734 6.15938 15.3217 6.03848 15.3203 5.91304V4.83304C15.3216 4.78042 15.3431 4.73033 15.3804 4.69311C15.4176 4.6559 15.4677 4.63439 15.5203 4.63304H16.507C16.5596 4.63439 16.6097 4.6559 16.6469 4.69311C16.6841 4.73033 16.7056 4.78042 16.707 4.83304V5.91304C16.7052 5.97544 16.7159 6.03756 16.7386 6.09572C16.7612 6.15389 16.7953 6.20692 16.8388 6.25168C16.8823 6.29643 16.9344 6.33201 16.9919 6.35629C17.0494 6.38057 17.1112 6.39307 17.1736 6.39304H18.2536C18.28 6.3925 18.3063 6.3973 18.3308 6.40716C18.3553 6.41701 18.3776 6.43173 18.3963 6.45041C18.4149 6.46909 18.4296 6.49135 18.4395 6.51586C18.4494 6.54038 18.4542 6.56663 18.4536 6.59304V7.56637Z" fill="white"/>
<path d="M18.2536 5.44637L18.2628 4.11304H18.2536V5.44637ZM17.6403 5.44637H16.307V6.77971H17.6403V5.44637ZM17.6403 4.83304L16.307 4.83147V4.83304H17.6403ZM16.507 3.69971V5.03304L16.5085 5.03304L16.507 3.69971ZM15.5203 3.69971L15.5187 5.03304H15.5203V3.69971ZM14.387 4.83304H15.7203L15.7203 4.83147L14.387 4.83304ZM14.387 5.44637V6.77971H15.7203V5.44637H14.387ZM13.7736 5.44637V4.11301L13.7644 4.11307L13.7736 5.44637ZM12.627 6.59304L11.2936 6.58383V6.59304H12.627ZM12.627 7.56637H11.2936L11.2937 7.57558L12.627 7.56637ZM13.7736 8.71304L13.7644 10.0464H13.7736V8.71304ZM14.387 8.71304H15.7203V7.37971H14.387V8.71304ZM14.387 9.31304L15.7203 9.32714V9.31304H14.387ZM15.5203 10.4597L15.5188 11.793H15.5203V10.4597ZM16.507 10.4597V11.793L16.5084 11.793L16.507 10.4597ZM17.6403 9.31304H16.3069L16.307 9.32714L17.6403 9.31304ZM17.6403 8.71304V7.37971H16.307V8.71304H17.6403ZM18.2536 8.71304V10.0464L18.2628 10.0463L18.2536 8.71304ZM19.4003 7.56637L20.7336 7.57558V7.56637H19.4003ZM19.4003 6.59304H20.7337L20.7336 6.58384L19.4003 6.59304ZM18.4536 7.56637L19.7865 7.60057L19.787 7.58347V7.56637H18.4536ZM18.3935 7.7063L19.3364 8.64911L18.3935 7.7063ZM18.2536 7.76637V9.09971H18.2707L18.2878 9.09927L18.2536 7.76637ZM17.1736 7.76637L17.1659 9.09971H17.1736V7.76637ZM16.707 8.23304H18.0403L18.0403 8.22536L16.707 8.23304ZM16.707 9.31304H15.3736V9.33062L15.3741 9.3482L16.707 9.31304ZM16.6508 9.46078L17.6235 10.3727L16.6508 9.46078ZM16.507 9.52637V10.8597H16.5324L16.5578 10.8587L16.507 9.52637ZM15.5203 9.52637L15.4695 10.8587L15.4949 10.8597H15.5203V9.52637ZM15.3203 9.31304L16.6532 9.3482L16.6536 9.33062V9.31304H15.3203ZM15.3203 8.23304H16.6536V8.22555L16.6535 8.21806L15.3203 8.23304ZM14.8536 7.76637L14.8686 6.43312L14.8611 6.43304H14.8536V7.76637ZM13.7736 7.76637L13.7394 9.09927L13.7565 9.09971H13.7736V7.76637ZM13.6337 7.7063L12.6909 8.64911L13.6337 7.7063ZM13.5736 7.56637H12.2403V7.58347L12.2407 7.60057L13.5736 7.56637ZM13.5736 6.59304H14.907V6.57929L14.9067 6.56555L13.5736 6.59304ZM13.7736 6.39304L13.7461 7.72609L13.7599 7.72637H13.7736V6.39304ZM14.8536 6.39304V7.72637H14.8648L14.876 7.72619L14.8536 6.39304ZM15.3203 5.91304H13.987V5.92063L13.987 5.92821L15.3203 5.91304ZM15.3203 4.83304L13.9874 4.79885L13.987 4.81594V4.83304H15.3203ZM15.5203 4.63304V3.29971H15.5032L15.4861 3.30015L15.5203 4.63304ZM16.507 4.63304L16.5411 3.30015L16.5241 3.29971H16.507V4.63304ZM16.707 4.83304H18.0403V4.81594L18.0398 4.79885L16.707 4.83304ZM16.707 5.91304L18.0397 5.95114L18.0403 5.93209V5.91304H16.707ZM17.1736 6.39304V5.05971L17.1731 5.05971L17.1736 6.39304ZM18.2536 6.39304V7.72637H18.2674L18.2811 7.72609L18.2536 6.39304ZM18.4536 6.59304L17.1206 6.56555L17.1203 6.57929V6.59304H18.4536ZM18.2536 4.11304H17.6403V6.77971H18.2536V4.11304ZM18.9736 5.44637V4.83304H16.307V5.44637H18.9736ZM18.9736 4.83461C18.974 4.51037 18.9104 4.18924 18.7865 3.88961L16.3222 4.90864C16.3121 4.88417 16.3069 4.85795 16.307 4.83147L18.9736 4.83461ZM18.7865 3.88961C18.6626 3.58998 18.4808 3.31773 18.2515 3.08845L16.3659 4.97407C16.3472 4.95534 16.3324 4.93311 16.3222 4.90864L18.7865 3.88961ZM18.2515 3.08845C18.0223 2.85918 17.75 2.67738 17.4504 2.55348L16.4313 5.01776C16.4069 5.00764 16.3846 4.9928 16.3659 4.97407L18.2515 3.08845ZM17.4504 2.55348C17.1508 2.42957 16.8296 2.36599 16.5054 2.36638L16.5085 5.03304C16.482 5.03307 16.4558 5.02788 16.4313 5.01776L17.4504 2.55348ZM16.507 2.36637H15.5203V5.03304H16.507V2.36637ZM15.5219 2.36638C15.1976 2.36599 14.8765 2.42957 14.5769 2.55348L15.5959 5.01776C15.5714 5.02788 15.5452 5.03307 15.5187 5.03304L15.5219 2.36638ZM14.5769 2.55348C14.2772 2.67738 14.005 2.85918 13.7757 3.08845L15.6613 4.97407C15.6426 4.9928 15.6204 5.00764 15.5959 5.01776L14.5769 2.55348ZM13.7757 3.08845C13.5464 3.31772 13.3646 3.58997 13.2407 3.88961L15.705 4.90864C15.6949 4.93312 15.68 4.95535 15.6613 4.97407L13.7757 3.08845ZM13.2407 3.88961C13.1168 4.18924 13.0532 4.51037 13.0536 4.83461L15.7203 4.83147C15.7203 4.85795 15.7151 4.88417 15.705 4.90864L13.2407 3.88961ZM13.0536 4.83304V5.44637H15.7203V4.83304H13.0536ZM14.387 4.11304H13.7736V6.77971H14.387V4.11304ZM13.7644 4.11307C13.1105 4.11759 12.4847 4.37935 12.0223 4.84173L13.9079 6.72735C13.8747 6.76055 13.8298 6.77935 13.7828 6.77968L13.7644 4.11307ZM12.0223 4.84173C11.5599 5.30411 11.2982 5.92994 11.2937 6.58384L13.9603 6.60225C13.9599 6.6492 13.9411 6.69415 13.9079 6.72735L12.0223 4.84173ZM11.2936 6.59304V7.56637H13.9603V6.59304H11.2936ZM11.2937 7.57558C11.2982 8.22947 11.5599 8.8553 12.0223 9.31768L13.9079 7.43207C13.9411 7.46527 13.9599 7.51021 13.9603 7.55717L11.2937 7.57558ZM12.0223 9.31768C12.4847 9.78007 13.1105 10.0418 13.7644 10.0463L13.7828 7.37974C13.8298 7.38006 13.8747 7.39886 13.9079 7.43207L12.0223 9.31768ZM13.7736 10.0464H14.387V7.37971H13.7736V10.0464ZM13.0536 8.71304V9.31304H15.7203V8.71304H13.0536ZM13.0537 9.29894C13.0502 9.62499 13.1114 9.94849 13.2337 10.2507L15.7057 9.25053C15.7156 9.27485 15.7205 9.3009 15.7202 9.32714L13.0537 9.29894ZM13.2337 10.2507C13.356 10.553 13.537 10.828 13.7662 11.0599L15.6629 9.18539C15.6813 9.20406 15.6959 9.22619 15.7057 9.25053L13.2337 10.2507ZM13.7662 11.0599C13.9955 11.2919 14.2683 11.476 14.5692 11.6019L15.5982 9.14176C15.6224 9.15189 15.6444 9.16672 15.6629 9.18539L13.7662 11.0599ZM14.5692 11.6019C14.87 11.7277 15.1927 11.7927 15.5188 11.793L15.5218 9.12637C15.548 9.1264 15.574 9.13163 15.5982 9.14176L14.5692 11.6019ZM15.5203 11.793H16.507V9.12637H15.5203V11.793ZM16.5084 11.793C16.8345 11.7927 17.1573 11.7277 17.4581 11.6019L16.429 9.14176C16.4532 9.13163 16.4792 9.1264 16.5055 9.12637L16.5084 11.793ZM17.4581 11.6019C17.7589 11.476 18.0318 11.2919 18.261 11.0599L16.3644 9.18539C16.3828 9.16672 16.4048 9.15189 16.429 9.14176L17.4581 11.6019ZM18.261 11.0599C18.4902 10.828 18.6712 10.553 18.7935 10.2507L16.3215 9.25053C16.3314 9.22619 16.3459 9.20406 16.3644 9.18539L18.261 11.0599ZM18.7935 10.2507C18.9158 9.94848 18.977 9.62498 18.9735 9.29894L16.307 9.32714C16.3067 9.3009 16.3117 9.27486 16.3215 9.25053L18.7935 10.2507ZM18.9736 9.31304V8.71304H16.307V9.31304H18.9736ZM17.6403 10.0464H18.2536V7.37971H17.6403V10.0464ZM18.2628 10.0463C18.9167 10.0418 19.5425 9.78007 20.0049 9.31768L18.1193 7.43207C18.1525 7.39886 18.1975 7.38006 18.2444 7.37974L18.2628 10.0463ZM20.0049 9.31768C20.4673 8.8553 20.7291 8.22947 20.7336 7.57558L18.067 7.55717C18.0673 7.51021 18.0861 7.46527 18.1193 7.43207L20.0049 9.31768ZM20.7336 7.56637V6.59304H18.067V7.56637H20.7336ZM20.7336 6.58384C20.7291 5.92994 20.4673 5.30411 20.0049 4.84173L18.1193 6.72735C18.0861 6.69415 18.0673 6.6492 18.067 6.60225L20.7336 6.58384ZM20.0049 4.84173C19.5425 4.37935 18.9167 4.11759 18.2628 4.11307L18.2444 6.77968C18.1975 6.77935 18.1525 6.76056 18.1193 6.72735L20.0049 4.84173ZM17.1207 7.53218C17.1281 7.24311 17.2463 6.96794 17.4507 6.76349L19.3364 8.64911C19.6152 8.37022 19.7764 7.99487 19.7865 7.60057L17.1207 7.53218ZM17.4507 6.76349C17.6552 6.55903 17.9304 6.44089 18.2194 6.43348L18.2878 9.09927C18.6821 9.08915 19.0575 8.92801 19.3364 8.64911L17.4507 6.76349ZM18.2536 6.43304H17.1736V9.09971H18.2536V6.43304ZM17.1813 6.43306C16.9435 6.43169 16.7079 6.47752 16.4879 6.56787L17.5013 9.03448C17.3949 9.07818 17.2809 9.10035 17.1659 9.09969L17.1813 6.43306ZM16.4879 6.56787C16.268 6.65823 16.0682 6.79132 15.9 6.95946L17.7857 8.84508C17.7043 8.92641 17.6077 8.99078 17.5013 9.03448L16.4879 6.56787ZM15.9 6.95946C15.7319 7.1276 15.5988 7.32742 15.5085 7.54735L17.9751 8.56073C17.9314 8.6671 17.867 8.76375 17.7857 8.84508L15.9 6.95946ZM15.5085 7.54735C15.4181 7.76727 15.3723 8.00295 15.3736 8.24073L18.0403 8.22536C18.0409 8.34037 18.0188 8.45436 17.9751 8.56073L15.5085 7.54735ZM15.3736 8.23304V9.31304H18.0403V8.23304H15.3736ZM15.3741 9.3482C15.3663 9.05213 15.4755 8.76492 15.6781 8.54886L17.6235 10.3727C17.9009 10.0768 18.0505 9.6834 18.0398 9.27788L15.3741 9.3482ZM15.6781 8.54886C15.8806 8.33281 16.1602 8.2053 16.4561 8.19401L16.5578 10.8587C16.9631 10.8433 17.346 10.6686 17.6235 10.3727L15.6781 8.54886ZM16.507 8.19304H15.5203V10.8597H16.507V8.19304ZM15.5711 8.19401C15.8671 8.2053 16.1466 8.3328 16.3492 8.54886L14.4038 10.3727C14.6812 10.6686 15.0641 10.8433 15.4695 10.8587L15.5711 8.19401ZM16.3492 8.54886C16.5517 8.76492 16.661 9.05213 16.6532 9.3482L13.9874 9.27788C13.9767 9.6834 14.1263 10.0768 14.4038 10.3727L16.3492 8.54886ZM16.6536 9.31304V8.23304H13.987V9.31304H16.6536ZM16.6535 8.21806C16.6482 7.74631 16.4585 7.29538 16.1249 6.96178L14.2393 8.8474C14.0801 8.68824 13.9896 8.47309 13.987 8.24802L16.6535 8.21806ZM16.1249 6.96178C15.7913 6.62819 15.3404 6.43843 14.8686 6.43312L14.8386 9.09962C14.6136 9.09709 14.3984 9.00656 14.2393 8.8474L16.1249 6.96178ZM14.8536 6.43304H13.7736V9.09971H14.8536V6.43304ZM13.8078 6.43348C14.0969 6.44089 14.372 6.55903 14.5765 6.76349L12.6909 8.64911C12.9698 8.92801 13.3451 9.08915 13.7394 9.09927L13.8078 6.43348ZM14.5765 6.76349C14.781 6.96796 14.8991 7.24313 14.9065 7.53218L12.2407 7.60057C12.2508 7.99485 12.412 8.37021 12.6909 8.64911L14.5765 6.76349ZM14.907 7.56637V6.59304H12.2403V7.56637H14.907ZM14.9067 6.56555C14.9098 6.71882 14.882 6.87115 14.8248 7.01338L12.3507 6.01835C12.2738 6.2096 12.2363 6.41443 12.2406 6.62054L14.9067 6.56555ZM14.8248 7.01338C14.7676 7.15562 14.6822 7.28481 14.5738 7.39322L12.6882 5.5076C12.5424 5.65336 12.4276 5.82709 12.3507 6.01835L14.8248 7.01338ZM14.5738 7.39322C14.4654 7.50162 14.3362 7.58699 14.194 7.64419L13.1989 5.17012C13.0077 5.24704 12.8339 5.36183 12.6882 5.5076L14.5738 7.39322ZM14.194 7.64419C14.0517 7.70139 13.8994 7.72925 13.7461 7.72609L13.8011 5.05999C13.595 5.05574 13.3902 5.0932 13.1989 5.17012L14.194 7.64419ZM13.7736 7.72637H14.8536V5.05971H13.7736V7.72637ZM14.876 7.72619C15.3538 7.71816 15.8089 7.52135 16.142 7.17876L14.23 5.31988C14.3882 5.15718 14.6043 5.06371 14.8312 5.0599L14.876 7.72619ZM16.142 7.17876C16.4751 6.83616 16.659 6.37565 16.6535 5.89787L13.987 5.92821C13.9845 5.7013 14.0718 5.48259 14.23 5.31988L16.142 7.17876ZM16.6536 5.91304V4.83304H13.987V5.91304H16.6536ZM16.6532 4.86723C16.6458 5.1563 16.5276 5.43147 16.3232 5.63592L14.4376 3.75031C14.1587 4.0292 13.9975 4.40455 13.9874 4.79885L16.6532 4.86723ZM16.3232 5.63592C16.1187 5.84038 15.8435 5.95852 15.5545 5.96594L15.4861 3.30015C15.0918 3.31026 14.7164 3.47141 14.4376 3.75031L16.3232 5.63592ZM15.5203 5.96637H16.507V3.29971H15.5203V5.96637ZM16.4728 5.96594C16.1837 5.95852 15.9085 5.84038 15.7041 5.63592L17.5897 3.75031C17.3108 3.47141 16.9354 3.31026 16.5411 3.30015L16.4728 5.96594ZM15.7041 5.63592C15.4996 5.43145 15.3815 5.15628 15.3741 4.86723L18.0398 4.79885C18.0297 4.40457 17.8686 4.02921 17.5897 3.75031L15.7041 5.63592ZM15.3736 4.83304V5.91304H18.0403V4.83304H15.3736ZM15.3742 5.87495C15.3673 6.11563 15.4088 6.35524 15.4961 6.57958L17.981 5.61187C18.0231 5.71988 18.0431 5.83524 18.0397 5.95114L15.3742 5.87495ZM15.4961 6.57958C15.5835 6.80394 15.715 7.00848 15.8828 7.18112L17.7948 5.32224C17.8756 5.40536 17.9389 5.50384 17.981 5.61187L15.4961 6.57958ZM15.8828 7.18112C16.0507 7.35374 16.2514 7.49095 16.4732 7.58461L17.5106 5.12797C17.6174 5.17306 17.714 5.23912 17.7948 5.32224L15.8828 7.18112ZM16.4732 7.58461C16.6951 7.67827 16.9334 7.72647 17.1742 7.72637L17.1731 5.05971C17.289 5.05966 17.4038 5.08287 17.5106 5.12797L16.4732 7.58461ZM17.1736 7.72637H18.2536V5.05971H17.1736V7.72637ZM18.2811 7.72609C18.1278 7.72925 17.9755 7.70139 17.8333 7.64419L18.8283 5.17012C18.6371 5.0932 18.4322 5.05574 18.2261 5.05999L18.2811 7.72609ZM17.8333 7.64419C17.691 7.58699 17.5618 7.50162 17.4534 7.39322L19.3391 5.5076C19.1933 5.36183 19.0196 5.24704 18.8283 5.17012L17.8333 7.64419ZM17.4534 7.39322C17.345 7.28481 17.2597 7.15562 17.2025 7.01338L19.6765 6.01835C19.5996 5.82709 19.4848 5.65336 19.3391 5.5076L17.4534 7.39322ZM17.2025 7.01338C17.1453 6.87115 17.1174 6.71882 17.1206 6.56555L19.7867 6.62054C19.7909 6.41443 19.7535 6.2096 19.6765 6.01835L17.2025 7.01338ZM17.1203 6.59304V7.56637H19.787V6.59304H17.1203Z" fill="white" mask="url(#path-1-inside-1_719_2403)"/>
<path d="M16.0171 0.686469L16.1255 0.779991H15.8745L15.9829 0.686474C15.9851 0.686507 15.9873 0.686541 15.9895 0.686576L16.0003 0.686744L16.011 0.686568C16.013 0.686534 16.015 0.686501 16.0171 0.686469Z" fill="white" stroke="white" stroke-width="1.33333"/>
<path d="M25.3213 31.9801H6.67858C6.61725 31.9802 6.55649 31.9683 6.49979 31.9449C6.44309 31.9215 6.39158 31.8871 6.34821 31.8438C6.30484 31.8004 6.27047 31.7489 6.24708 31.6922C6.22369 31.6355 6.21174 31.5747 6.21192 31.5134V19.2307C6.21192 19.1695 6.224 19.1089 6.24746 19.0523C6.27093 18.9958 6.30533 18.9444 6.34868 18.9012C6.39203 18.858 6.44349 18.8237 6.5001 18.8004C6.55671 18.7771 6.61736 18.7652 6.67858 18.7654H25.3213C25.3825 18.7652 25.4431 18.7771 25.4997 18.8004C25.5563 18.8237 25.6078 18.858 25.6512 18.9012C25.6945 18.9444 25.7289 18.9958 25.7524 19.0523C25.7758 19.1089 25.7879 19.1695 25.7879 19.2307V31.5134C25.7881 31.5747 25.7761 31.6355 25.7528 31.6922C25.7294 31.7489 25.695 31.8004 25.6516 31.8438C25.6083 31.8871 25.5567 31.9215 25.5 31.9449C25.4433 31.9683 25.3826 31.9802 25.3213 31.9801ZM7.14525 31.0467H24.8559V19.6974H7.14525V31.0467Z" fill="white"/>
<path d="M15.9998 28.8293C15.7983 28.8331 15.6008 28.7729 15.4358 28.6573C14.7942 28.2725 14.1918 27.8259 13.6371 27.3239C13.1917 26.9308 12.8043 26.4765 12.4864 25.9746C12.2741 25.6389 12.1311 25.2642 12.0659 24.8724C12.0006 24.4806 12.0144 24.0797 12.1064 23.6933C12.203 23.2941 12.3927 22.9234 12.6599 22.6115C12.9271 22.2996 13.2644 22.0554 13.644 21.8987C14.0237 21.742 14.435 21.6774 14.8444 21.71C15.2538 21.7427 15.6497 21.8717 15.9998 22.0866C16.3501 21.8726 16.7461 21.7444 17.1554 21.7127C17.5647 21.6809 17.9757 21.7465 18.3549 21.9039C18.7341 22.0614 19.0706 22.3063 19.337 22.6187C19.6034 22.9311 19.7921 23.302 19.8878 23.7013C19.9791 24.0871 19.9924 24.4874 19.927 24.8784C19.8615 25.2695 19.7185 25.6436 19.5064 25.9786C19.1883 26.4815 18.8004 26.9367 18.3544 27.3306C17.7853 27.8407 17.1687 28.2952 16.5131 28.6879C16.3601 28.7858 16.1812 28.835 15.9998 28.8293ZM14.6438 22.6373C14.4626 22.6377 14.2826 22.6665 14.1104 22.7226C13.8403 22.8081 13.5972 22.9628 13.4052 23.1711C13.2132 23.3795 13.0789 23.6344 13.0158 23.9106C12.9518 24.176 12.9418 24.4515 12.9862 24.7208C13.0307 24.9901 13.1287 25.2478 13.2744 25.4786C13.5459 25.9075 13.8773 26.2954 14.2584 26.6306C14.7824 27.1026 15.3508 27.5228 15.9558 27.8853C16.5959 27.5428 17.1911 27.1223 17.7278 26.6333C18.1098 26.2976 18.4416 25.9087 18.7131 25.4786C18.8596 25.2494 18.9587 24.9931 19.0045 24.7249C19.0503 24.4568 19.0419 24.1821 18.9798 23.9173C18.9132 23.6433 18.7781 23.3908 18.5872 23.1833C18.3963 22.9758 18.1558 22.8203 17.8883 22.7313C17.6208 22.6422 17.335 22.6226 17.0579 22.6743C16.7807 22.7259 16.5212 22.8472 16.3038 23.0266C16.2192 23.0983 16.1119 23.1377 16.0011 23.1377C15.8902 23.1377 15.783 23.0983 15.6984 23.0266C15.4065 22.7755 15.0342 22.6373 14.6491 22.6373H14.6438Z" fill="white"/>
</svg>
