<svg width="32" height="32" viewBox="0 0 32 32" fill="none" xmlns="http://www.w3.org/2000/svg">
<path d="M26.8703 18.0722L28.9383 16.0042C32.1303 12.8122 32.1303 7.63616 28.9383 4.44283C25.7463 1.25083 20.5703 1.25083 17.377 4.44283" stroke="white" stroke-width="1.06667" stroke-miterlimit="10" stroke-linecap="round" stroke-linejoin="round"/>
<path d="M15.3103 6.51071L14.6223 5.82271C11.4303 2.63071 6.25433 2.63071 3.06099 5.82271C-0.131008 9.01471 -0.131008 14.1907 3.06099 17.384L5.13833 19.4614" stroke="white" stroke-width="1.06667" stroke-miterlimit="10" stroke-linecap="round" stroke-linejoin="round"/>
<path d="M22.739 19.0306L25.4964 21.788C26.199 22.4906 27.339 22.4906 28.0417 21.788C28.7444 21.0853 28.7444 19.9453 28.0417 19.2426L25.2844 16.4853L20.0537 11.2546" stroke="white" stroke-width="1.06667" stroke-miterlimit="10" stroke-linecap="round" stroke-linejoin="round"/>
<path d="M20.1934 21.5759L22.9507 24.3332C23.6534 25.0359 24.7934 25.0359 25.496 24.3332C26.1987 23.6305 26.1987 22.4905 25.496 21.7879L22.7387 19.0305" stroke="white" stroke-width="1.06667" stroke-miterlimit="10" stroke-linecap="round" stroke-linejoin="round"/>
<path d="M18.8291 25.3026L20.4051 26.8786C21.1078 27.5813 22.2478 27.5813 22.9504 26.8786C23.6531 26.1759 23.6531 25.0359 22.9504 24.3333L20.1931 21.5759" stroke="white" stroke-width="1.06667" stroke-miterlimit="10" stroke-linecap="round" stroke-linejoin="round"/>
<path d="M16.6895 28.2533L17.8601 29.424C18.5628 30.1267 19.7028 30.1267 20.4055 29.424C21.1081 28.7213 21.1081 27.5813 20.4055 26.8787" stroke="white" stroke-width="1.06667" stroke-miterlimit="10" stroke-linecap="round" stroke-linejoin="round"/>
<path d="M18.2773 24.1215C17.5746 23.4188 16.4346 23.4188 15.732 24.1215L12.9733 26.8788C12.2706 27.5815 12.2706 28.7215 12.9733 29.4242C13.676 30.1268 14.816 30.1268 15.5186 29.4242L18.2773 26.6668C18.98 25.9641 18.98 24.8241 18.2773 24.1215Z" stroke="white" stroke-width="1.06667" stroke-miterlimit="10" stroke-linecap="round" stroke-linejoin="round"/>
<path d="M15.7324 21.5761C15.0297 20.8734 13.8897 20.8734 13.187 21.5761L10.4284 24.3334C9.7257 25.0361 9.7257 26.1761 10.4284 26.8787C11.131 27.5814 12.271 27.5814 12.9737 26.8787L15.731 24.1214C16.435 23.4187 16.435 22.2787 15.7324 21.5761Z" stroke="white" stroke-width="1.06667" stroke-miterlimit="10" stroke-linecap="round" stroke-linejoin="round"/>
<path d="M13.1871 19.0307C12.4844 18.328 11.3444 18.328 10.6418 19.0307L7.88442 21.788C7.18176 22.4907 7.18176 23.6307 7.88442 24.3333C8.58709 25.036 9.72709 25.036 10.4298 24.3333L13.1871 21.576C13.8898 20.8733 13.8898 19.7333 13.1871 19.0307Z" stroke="white" stroke-width="1.06667" stroke-miterlimit="10" stroke-linecap="round" stroke-linejoin="round"/>
<path d="M10.6402 16.4853C9.93755 15.7826 8.79755 15.7826 8.09488 16.4853L5.33755 19.2426C4.63488 19.9453 4.63488 21.0853 5.33755 21.7879C6.04021 22.4906 7.18021 22.4906 7.88288 21.7879L10.6402 19.0306C11.3442 18.3279 11.3442 17.1879 10.6402 16.4853Z" stroke="white" stroke-width="1.06667" stroke-miterlimit="10" stroke-linecap="round" stroke-linejoin="round"/>
<path d="M17.3776 4.44263L10.3242 11.496C12.9442 14.116 17.1909 14.116 19.8109 11.496L21.1749 10.1333" stroke="white" stroke-width="1.06667" stroke-miterlimit="10" stroke-linecap="round" stroke-linejoin="round"/>
</svg>
