<svg width="32" height="32" viewBox="0 0 32 32" fill="none" xmlns="http://www.w3.org/2000/svg">
<path d="M26.8708 18.0722L28.9388 16.0042C32.1308 12.8122 32.1308 7.63616 28.9388 4.44283C25.7468 1.25083 20.5708 1.25083 17.3774 4.44283" stroke="#0C141E" stroke-width="1.06667" stroke-miterlimit="10" stroke-linecap="round" stroke-linejoin="round"/>
<path d="M15.3104 6.51071L14.6224 5.82271C11.4304 2.63071 6.25445 2.63071 3.06111 5.82271C-0.130886 9.01471 -0.130886 14.1907 3.06111 17.384L5.13845 19.4614" stroke="#0C141E" stroke-width="1.06667" stroke-miterlimit="10" stroke-linecap="round" stroke-linejoin="round"/>
<path d="M22.7384 19.0305L25.4957 21.7878C26.1984 22.4905 27.3384 22.4905 28.041 21.7878C28.7437 21.0852 28.7437 19.9452 28.041 19.2425L25.2837 16.4852L20.053 11.2545" stroke="#0C141E" stroke-width="1.06667" stroke-miterlimit="10" stroke-linecap="round" stroke-linejoin="round"/>
<path d="M20.193 21.5759L22.9503 24.3332C23.653 25.0359 24.793 25.0359 25.4957 24.3332C26.1983 23.6305 26.1983 22.4905 25.4957 21.7879L22.7383 19.0305" stroke="#0C141E" stroke-width="1.06667" stroke-miterlimit="10" stroke-linecap="round" stroke-linejoin="round"/>
<path d="M18.829 25.3025L20.405 26.8785C21.1077 27.5811 22.2477 27.5811 22.9504 26.8785C23.653 26.1758 23.653 25.0358 22.9504 24.3331L20.193 21.5758" stroke="#0C141E" stroke-width="1.06667" stroke-miterlimit="10" stroke-linecap="round" stroke-linejoin="round"/>
<path d="M16.6891 28.2532L17.8598 29.4239C18.5624 30.1265 19.7024 30.1265 20.4051 29.4239C21.1078 28.7212 21.1078 27.5812 20.4051 26.8785" stroke="#0C141E" stroke-width="1.06667" stroke-miterlimit="10" stroke-linecap="round" stroke-linejoin="round"/>
<path d="M18.2774 24.1215C17.5747 23.4188 16.4347 23.4188 15.7321 24.1215L12.9734 26.8788C12.2707 27.5815 12.2707 28.7215 12.9734 29.4242C13.6761 30.1268 14.8161 30.1268 15.5187 29.4242L18.2774 26.6668C18.9801 25.9641 18.9801 24.8241 18.2774 24.1215Z" stroke="#0C141E" stroke-width="1.06667" stroke-miterlimit="10" stroke-linecap="round" stroke-linejoin="round"/>
<path d="M15.7319 21.5762C15.0292 20.8735 13.8892 20.8735 13.1865 21.5762L10.4279 24.3335C9.72521 25.0362 9.72521 26.1762 10.4279 26.8789C11.1305 27.5815 12.2705 27.5815 12.9732 26.8789L15.7305 24.1215C16.4345 23.4189 16.4345 22.2789 15.7319 21.5762Z" stroke="#0C141E" stroke-width="1.06667" stroke-miterlimit="10" stroke-linecap="round" stroke-linejoin="round"/>
<path d="M13.1869 19.0307C12.4842 18.328 11.3442 18.328 10.6416 19.0307L7.88424 21.788C7.18157 22.4907 7.18157 23.6307 7.88424 24.3333C8.58691 25.036 9.72691 25.036 10.4296 24.3333L13.1869 21.576C13.8896 20.8733 13.8896 19.7333 13.1869 19.0307Z" stroke="#0C141E" stroke-width="1.06667" stroke-miterlimit="10" stroke-linecap="round" stroke-linejoin="round"/>
<path d="M10.64 16.4853C9.93736 15.7826 8.79736 15.7826 8.0947 16.4853L5.33736 19.2426C4.6347 19.9453 4.6347 21.0853 5.33736 21.788C6.04003 22.4906 7.18003 22.4906 7.8827 21.788L10.64 19.0306C11.344 18.328 11.344 17.188 10.64 16.4853Z" stroke="#0C141E" stroke-width="1.06667" stroke-miterlimit="10" stroke-linecap="round" stroke-linejoin="round"/>
<path d="M17.3774 4.44269L10.324 11.496C12.944 14.116 17.1907 14.116 19.8107 11.496L21.1747 10.1334" stroke="#0C141E" stroke-width="1.06667" stroke-miterlimit="10" stroke-linecap="round" stroke-linejoin="round"/>
</svg>
