<svg width="250" height="105" viewBox="0 0 250 105" fill="none" xmlns="http://www.w3.org/2000/svg">
<path d="M17.3292 56.4551C21.1811 46.0303 18.2977 30.1754 7.62012 25.0317C20.1603 30.5482 23.2318 45.2079 17.3292 56.4551Z" fill="#FFD600"/>
<path d="M13.7245 21.303C16.2549 25.4031 18.9777 26.9113 15.1132 31.3788C15.6246 27.7923 12.2687 27.9896 13.7245 21.303Z" fill="#FFD600"/>
<path d="M8.3291 30.917C11.7055 34.4082 12.442 37.3457 17.9887 35.0409C14.2671 34.5001 15.4109 31.4605 8.3291 30.917Z" fill="#FFD600"/>
<path d="M9.65576 26.2201C4.69756 26.1501 1.93802 27.5936 -0.000976562 22.0901C2.90999 24.3847 4.48888 21.5302 9.65576 26.2201Z" fill="#FFD600"/>
<path d="M66.0749 33.5703L66.0828 19.6719C65.2254 20.3236 63.9923 20.7359 62.0625 20.8624C62.2139 25.185 63.6952 29.6443 66.0749 33.5703Z" fill="#FFD600"/>
<path d="M61.5148 15.7385C62.3779 13.4023 63.7976 11.1547 65.818 9.08453C65.9085 8.93283 65.9984 8.7886 66.0882 8.6471L66.0932 0.355713C66.0932 0.355713 64.0658 3.76805 60.4375 9.25392C62.1084 12.3731 60.4573 13.6439 61.5148 15.7385Z" fill="#FFD600"/>
<path d="M62.0518 19.8825C63.4057 18.5409 63.2104 16.9769 66.0846 15.1041L66.0882 9.4563C65.8901 9.52229 62.0977 16.1456 62.0518 19.8825Z" fill="#FFD600"/>
<path d="M55.819 89.8913C61.5816 89.079 65.7779 82.3584 66.0489 79.3706L66.0502 76.1399C64.4678 78.0705 64.8837 80.3863 58.0771 83.2639C60.2142 78.493 59.8187 75.1786 66.0509 74.6562L66.0523 71.4425C64.907 64.1055 60.8048 56.772 55.1958 51.816C60.1561 55.2195 63.8877 59.5986 66.0566 64.3402L66.0729 35.3795C61.1359 29.712 59.1757 22.6547 61.3566 16.1939C59.2054 15.2286 58.1718 14.2857 57.7587 13.2415C54.2592 18.3783 49.775 24.6765 44.5211 31.4393C47.9853 34.9802 50.1407 39.1239 50.1407 39.1239C50.1407 39.1239 55.321 48.9656 46.0158 49.8146C36.3866 47.9608 42.6302 42.0818 36.7651 33.042C32.9239 27.633 26.2778 29.4623 23.6604 33.3529C22.1643 35.5734 22.2612 35.4605 18.502 39.9606C28.8026 44.2009 21.1767 54.3719 18.3039 59.9272C15.4298 65.4811 17.3235 76.9964 25.3667 81.453C33.4106 85.9082 45 84.1735 49.1079 79.3549C53.2158 74.5378 58.0368 79.493 56.1784 84.0959C54.3165 88.6967 46.7961 86.2831 53.3629 88.6464C54.1927 88.9457 55.0147 89.3736 55.819 89.8913Z" fill="#FFD600"/>
<path d="M58.8008 92.2612C62.9469 96.149 66.0368 101.407 66.0368 101.407L66.0475 82.8262C65.0684 84.7711 59.8385 91.4747 58.8008 92.2612Z" fill="#FFD600"/>
<path d="M164.462 20.2192H176.626V25.3563H158.838V0.329102H164.462V20.2192Z" fill="#FFD600"/>
<path d="M146.543 25.3563V0.329102H152.167V25.3563H146.543Z" fill="#FFD600"/>
<path d="M136.668 0.329102H142.619L133.725 25.3563H126.466L117.572 0.329102H123.589L130.128 20.0216L136.668 0.329102Z" fill="#FFD600"/>
<path d="M108.024 25.3563V0.329102H113.649V25.3563H108.024Z" fill="#FFD600"/>
<path d="M92.8523 25.6858C85.5278 25.6858 80.6885 20.6145 80.6885 12.8429C80.6885 5.13717 85.5932 0 92.8523 0C98.2148 0 102.139 2.7003 103.577 7.31058L98.2802 9.15469C97.3646 6.2568 95.4681 4.742 92.7215 4.742C88.8631 4.742 86.4434 7.83747 86.4434 12.8429C86.4434 17.8484 88.7977 20.9438 92.7215 20.9438C95.4681 20.9438 97.3646 19.429 98.2802 16.5311L103.577 18.3752C102.204 22.9855 98.2148 25.6858 92.8523 25.6858Z" fill="#FFD600"/>
<path d="M237.183 59.6016H250.001V64.5411H231.689V39.5139H249.674V44.4535H237.183V49.3272H246.731V54.0692H237.183V59.6016Z" fill="#FFD600"/>
<path d="M216.518 64.8706C209.194 64.8706 204.354 59.7993 204.354 52.0277C204.354 44.322 209.259 39.1848 216.518 39.1848C221.881 39.1848 225.805 41.8851 227.243 46.4954L221.946 48.3395C221.031 45.4416 219.134 43.9268 216.387 43.9268C212.529 43.9268 210.109 47.0223 210.109 52.0277C210.109 57.0332 212.464 60.1286 216.387 60.1286C219.134 60.1286 221.031 58.6138 221.946 55.716L227.243 57.5601C225.87 62.1703 221.881 64.8706 216.518 64.8706Z" fill="#FFD600"/>
<path d="M194.021 39.5139H199.449V64.5411H194.217L183.034 48.6027V64.5411H177.606V39.5139H182.904L194.021 55.4523V39.5139Z" fill="#FFD600"/>
<path d="M160.145 59.6016H172.962V64.5411H154.651V39.5139H172.635V44.4535H160.145V49.3272H169.693V54.0692H160.145V59.6016Z" fill="#FFD600"/>
<path d="M150.467 44.5194H138.172V49.8541H147.524V54.5961H138.172V64.5411H132.548V39.5139H150.467V44.5194Z" fill="#FFD600"/>
<path d="M115.086 59.6016H127.904V64.5411H109.593V39.5139H127.577V44.4535H115.086V49.3272H124.634V54.0692H115.086V59.6016Z" fill="#FFD600"/>
<path d="M92.1328 39.5139C100.177 39.5139 104.689 44.4535 104.689 52.0275C104.689 59.404 99.9804 64.5411 92.1328 64.5411H82.4541V39.5139H92.1328ZM92.002 59.7991C96.5144 59.7991 98.9341 56.9012 98.9341 52.0275C98.9341 47.1538 96.5144 44.2559 92.002 44.2559H88.0782V59.7991H92.002Z" fill="#FFD600"/>
<path d="M236.66 98.7866H249.478V103.726H231.167V78.699H249.151V83.6386H236.66V88.5123H246.208V93.2543H236.66V98.7866Z" fill="#FFD600"/>
<path d="M219.069 78.699H224.497V103.726H219.265L208.082 87.7878V103.726H202.654V78.699H207.951L219.069 94.6374V78.699Z" fill="#FFD600"/>
<path d="M190.359 103.726V78.699H195.983V103.726H190.359Z" fill="#FFD600"/>
<path d="M180.68 103.726L178.914 98.7866H168.059L166.293 103.726H160.407L170.086 78.699H177.018L186.697 103.726H180.68ZM169.824 93.9129H177.149L173.487 83.6386L169.824 93.9129Z" fill="#FFD600"/>
<path d="M152.821 103.726L147.524 94.5056H143.012V103.726H137.453V78.699H148.44C154.325 78.699 157.791 81.5969 157.791 86.5364C157.791 90.0271 156.091 92.5298 153.083 93.7153L159.099 103.726H152.821ZM143.012 83.441V90.0929H148.047C150.729 90.0929 152.102 88.9074 152.102 86.734C152.102 84.5606 150.729 83.441 148.047 83.441H143.012Z" fill="#FFD600"/>
<path d="M126.99 103.726L119.6 92.5298L116.33 95.8229V103.726H110.706V78.699H116.33V89.3026L126.27 78.699H133.268L123.589 88.5123L133.66 103.726H126.99Z" fill="#FFD600"/>
<path d="M93.2454 104.055C86.3133 104.055 82.1279 99.9719 82.1279 93.6492V78.6987H87.752V93.4516C87.752 97.0081 89.7139 99.0498 93.2454 99.0498C96.7768 99.0498 98.7387 97.0081 98.7387 93.4516V78.6987H104.363V93.6492C104.363 99.9719 100.177 104.055 93.2454 104.055Z" fill="#FFD600"/>
</svg>
