<svg width="94" height="149" viewBox="0 0 94 149" fill="none" xmlns="http://www.w3.org/2000/svg">
<path d="M24.4871 82.7919C29.9294 67.574 25.8554 44.4295 10.7688 36.9209C28.4872 44.9737 32.827 66.3724 24.4871 82.7919Z" fill="#0057B8"/>
<path d="M19.3926 31.478C22.9678 37.4633 26.815 39.6639 21.3546 46.1864C22.0773 40.9499 17.3356 41.2379 19.3926 31.478Z" fill="#0057B8"/>
<path d="M11.7703 45.5132C16.5409 50.6096 17.5814 54.8968 25.4186 51.5322C20.1601 50.7437 21.7764 46.3057 11.7703 45.5132Z" fill="#0057B8"/>
<path d="M13.6444 38.6539C6.63877 38.5526 2.73967 40.6599 0 32.626C4.113 35.9756 6.34391 31.8097 13.6444 38.6539Z" fill="#0057B8"/>
<path d="M93.3606 49.3842L93.3716 29.0957C92.1602 30.0471 90.4181 30.6489 87.6914 30.8336C87.9053 37.1436 89.9983 43.6531 93.3606 49.3842Z" fill="#0057B8"/>
<path d="M86.9188 23.3538C88.1382 19.9436 90.1442 16.6624 92.9988 13.6415C93.1267 13.4191 93.2536 13.2085 93.3806 13.003L93.3876 0.899414C93.3876 0.899414 90.523 5.88167 85.3965 13.8888C87.7573 18.4411 85.4255 20.2961 86.9188 23.3538Z" fill="#0057B8"/>
<path d="M87.6763 29.4046C89.5893 27.4453 89.3135 25.1632 93.3745 22.4283L93.3795 14.1848C93.0996 14.2801 87.7412 23.9497 87.6763 29.4046Z" fill="#0057B8"/>
<path d="M78.8706 131.601C87.0126 130.415 92.9417 120.604 93.3246 116.243L93.3266 111.527C91.0907 114.345 91.6784 117.725 82.0611 121.926C85.0806 114.962 84.5218 110.123 93.3275 109.361L93.3296 104.669C91.7113 93.9592 85.9151 83.2539 77.99 76.0193C84.9986 80.9877 90.271 87.3801 93.3355 94.3018L93.3585 52.0257C86.3829 43.7534 83.6133 33.4503 86.6948 24.0201C83.6553 22.6109 82.195 21.2346 81.6113 19.7102C76.6667 27.2089 70.3307 36.4028 62.9074 46.2749C67.802 51.4438 70.8475 57.4936 70.8475 57.4936C70.8475 57.4936 78.1669 71.8603 65.0193 73.0997C51.4139 70.3936 60.2357 61.8115 51.9487 48.6155C46.5214 40.7206 37.1309 43.389 33.4327 49.0693C31.3187 52.3117 31.4557 52.1469 26.1443 58.716C40.6982 64.9049 29.9235 79.7533 25.8644 87.8627C21.8034 95.9702 24.4791 112.78 35.8435 119.285C47.209 125.789 63.584 123.257 69.3882 116.223C75.1924 109.191 82.0041 116.424 79.3783 123.144C76.7476 129.86 66.1218 126.336 75.4003 129.786C76.5727 130.22 77.7341 130.845 78.8706 131.601Z" fill="#0057B8"/>
<path d="M83.0825 135.061C88.9407 140.736 93.3065 148.411 93.3065 148.411L93.3215 121.288C91.9382 124.127 84.5488 133.912 83.0825 135.061Z" fill="#0057B8"/>
</svg>
