<svg width="348" height="172" viewBox="0 0 348 172" fill="none" xmlns="http://www.w3.org/2000/svg">
<path d="M24.4871 95.7919C29.9294 80.574 25.8554 57.4295 10.7688 49.9209C28.4872 57.9737 32.827 79.3724 24.4871 95.7919Z" fill="#FFD600"/>
<path d="M19.3926 44.478C22.9678 50.4633 26.815 52.6639 21.3546 59.1864C22.0773 53.9499 17.3356 54.2379 19.3926 44.478Z" fill="#FFD600"/>
<path d="M11.7703 58.5132C16.5409 63.6096 17.5814 67.8968 25.4186 64.5322C20.1601 63.7437 21.7764 59.3057 11.7703 58.5132Z" fill="#FFD600"/>
<path d="M13.6444 51.6539C6.63877 51.5526 2.73966 53.6599 0 45.626C4.113 48.9756 6.34391 44.8097 13.6444 51.6539Z" fill="#FFD600"/>
<path d="M93.3606 62.3842L93.3716 42.0957C92.1602 43.0471 90.4181 43.6489 87.6914 43.8336C87.9053 50.1436 89.9983 56.6531 93.3606 62.3842Z" fill="#FFD600"/>
<path d="M86.9188 36.3538C88.1382 32.9436 90.1442 29.6624 92.9988 26.6415C93.1267 26.4191 93.2536 26.2085 93.3806 26.003L93.3876 13.8994C93.3876 13.8994 90.523 18.8817 85.3965 26.8888C87.7573 31.4411 85.4255 33.2961 86.9188 36.3538Z" fill="#FFD600"/>
<path d="M87.6763 42.4044C89.5893 40.445 89.3135 38.163 93.3745 35.4281L93.3795 27.1846C93.0996 27.2799 87.7412 36.9494 87.6763 42.4044Z" fill="#FFD600"/>
<path d="M78.8706 144.6C87.0126 143.415 92.9417 133.604 93.3246 129.242L93.3266 124.526C91.0907 127.345 91.6784 130.725 82.0611 134.926C85.0806 127.961 84.5218 123.123 93.3275 122.361L93.3296 117.669C91.7113 106.959 85.9151 96.2536 77.99 89.0191C84.9986 93.9874 90.271 100.38 93.3355 107.302L93.3585 65.0255C86.3829 56.7532 83.6133 46.4501 86.6948 37.0199C83.6553 35.6107 82.195 34.2343 81.6113 32.71C76.6667 40.2086 70.3308 49.4025 62.9074 59.2746C67.802 64.4436 70.8475 70.4934 70.8475 70.4934C70.8475 70.4934 78.1669 84.8601 65.0193 86.0995C51.4139 83.3933 60.2357 74.8112 51.9487 61.6153C46.5214 53.7204 37.1309 56.3887 33.4327 62.0691C31.3187 65.3115 31.4557 65.1466 26.1443 71.7158C40.6982 77.9046 29.9235 92.7531 25.8644 100.862C21.8034 108.97 24.4791 125.78 35.8435 132.285C47.209 138.789 63.584 136.257 69.3882 129.223C75.1924 122.191 82.0041 129.424 79.3783 136.143C76.7476 142.859 66.1218 139.336 75.4003 142.786C76.5727 143.22 77.7342 143.845 78.8706 144.6Z" fill="#FFD600"/>
<path d="M83.0825 148.061C88.9407 153.736 93.3065 161.411 93.3065 161.411L93.3215 134.288C91.9382 137.127 84.5488 146.912 83.0825 148.061Z" fill="#FFD600"/>
<path d="M215.402 48V12.375H223.464V40.6875H240.902V48H215.402Z" fill="#FFD600"/>
<path d="M197.777 48V12.375H205.839V48H197.777Z" fill="#FFD600"/>
<path d="M156.245 12.375H164.87L174.245 40.4062L183.62 12.375H192.152L179.402 48H168.995L156.245 12.375Z" fill="#FFD600"/>
<path d="M142.558 48V12.375H150.62V48H142.558Z" fill="#FFD600"/>
<path d="M103.37 30.1875C103.37 26.5781 104.097 23.3906 105.55 20.625C107.003 17.8438 109.05 15.6953 111.691 14.1797C114.331 12.6641 117.37 11.9062 120.808 11.9062C124.652 11.9062 127.917 12.8203 130.605 14.6484C133.292 16.4766 135.152 19.0312 136.183 22.3125L128.589 24.9375C127.261 20.75 124.605 18.6562 120.62 18.6562C117.855 18.6562 115.659 19.6875 114.034 21.75C112.425 23.8125 111.62 26.625 111.62 30.1875C111.62 33.7656 112.417 36.5859 114.011 38.6484C115.605 40.6953 117.808 41.7188 120.62 41.7188C124.605 41.7188 127.261 39.625 128.589 35.4375L136.183 38.0625C135.198 41.3438 133.347 43.8984 130.628 45.7266C127.925 47.5547 124.652 48.4688 120.808 48.4688C115.558 48.4688 111.339 46.8047 108.152 43.4766C104.964 40.1484 103.37 35.7188 103.37 30.1875Z" fill="#FFD600"/>
<path d="M315.808 105.201V69.5757H341.589V76.6069H323.683V83.5444H337.37V90.2944H323.683V98.1694H342.058V105.201H315.808Z" fill="#FFD600"/>
<path d="M279.527 100.419L283.933 94.4194C285.402 95.8413 287.089 96.9351 288.995 97.7007C290.917 98.4507 292.948 98.8257 295.089 98.8257C297.105 98.8257 298.667 98.5132 299.777 97.8882C300.902 97.2632 301.464 96.3882 301.464 95.2632C301.464 94.6069 301.183 94.0444 300.62 93.5757C300.058 93.1069 299.456 92.7632 298.816 92.5444C298.191 92.3101 297.113 91.9741 295.581 91.5366C295.425 91.4897 295.3 91.4585 295.206 91.4429C295.128 91.4116 295.019 91.3804 294.878 91.3491C294.753 91.3022 294.636 91.2632 294.527 91.2319C293.37 90.9038 292.472 90.646 291.831 90.4585C291.206 90.271 290.339 89.9741 289.23 89.5679C288.136 89.1616 287.269 88.7788 286.628 88.4194C285.988 88.0444 285.253 87.5522 284.425 86.9429C283.613 86.3335 282.98 85.7007 282.527 85.0444C282.089 84.3882 281.714 83.5991 281.402 82.6772C281.089 81.7554 280.933 80.7632 280.933 79.7007C280.933 76.4351 282.214 73.8569 284.777 71.9663C287.339 70.0601 290.808 69.1069 295.183 69.1069C300.261 69.1069 304.792 70.5444 308.777 73.4194L304.464 79.4194C303.152 78.3413 301.659 77.5132 299.988 76.9351C298.331 76.3413 296.636 76.0444 294.902 76.0444C293.073 76.0444 291.613 76.3491 290.519 76.9585C289.441 77.5522 288.902 78.3413 288.902 79.3257C288.902 80.2944 289.488 81.0913 290.659 81.7163C291.831 82.3257 293.745 82.9976 296.402 83.7319C297.245 83.9663 297.917 84.1538 298.417 84.2944C298.933 84.4351 299.605 84.646 300.433 84.9272C301.261 85.1929 301.941 85.4429 302.472 85.6772C303.003 85.896 303.62 86.1929 304.323 86.5679C305.042 86.9272 305.62 87.2866 306.058 87.646C306.511 88.0054 306.988 88.4429 307.488 88.9585C307.988 89.4741 308.37 90.0132 308.636 90.5757C308.917 91.1226 309.152 91.7476 309.339 92.4507C309.527 93.1538 309.62 93.9038 309.62 94.7007C309.62 98.1694 308.323 100.865 305.73 102.787C303.152 104.708 299.542 105.669 294.902 105.669C291.886 105.669 289.034 105.216 286.347 104.31C283.659 103.388 281.386 102.091 279.527 100.419Z" fill="#FFD600"/>
<path d="M242.308 105.201V69.5757H249.902L265.839 92.2632V69.5757H273.62V105.201H266.12L250.089 82.5132V105.201H242.308Z" fill="#FFD600"/>
<path d="M209.402 105.201V69.5757H235.183V76.6069H217.277V83.5444H230.964V90.2944H217.277V98.1694H235.652V105.201H209.402Z" fill="#FFD600"/>
<path d="M177.714 105.201V69.5757H203.402V76.7007H185.777V84.2944H199.183V91.0444H185.777V105.201H177.714Z" fill="#FFD600"/>
<path d="M144.808 105.201V69.5757H170.589V76.6069H152.683V83.5444H166.37V90.2944H152.683V98.1694H171.058V105.201H144.808Z" fill="#FFD600"/>
<path d="M105.902 105.201V69.5757H119.777C125.464 69.5757 129.886 71.1772 133.042 74.3804C136.198 77.5835 137.777 81.9194 137.777 87.3882C137.777 90.8882 137.066 93.9819 135.644 96.6694C134.222 99.3413 132.144 101.435 129.409 102.951C126.675 104.451 123.464 105.201 119.777 105.201H105.902ZM113.964 98.4507H119.589C122.792 98.4507 125.245 97.4819 126.948 95.5444C128.667 93.6069 129.527 90.8882 129.527 87.3882C129.527 83.8882 128.667 81.1694 126.948 79.2319C125.245 77.2944 122.792 76.3257 119.589 76.3257H113.964V98.4507Z" fill="#FFD600"/>
<path d="M319.089 162.402V126.777H344.87V133.808H326.964V140.746H340.652V147.496H326.964V155.371H345.339V162.402H319.089Z" fill="#FFD600"/>
<path d="M278.214 162.402V126.777H285.808L301.745 149.464V126.777H309.527V162.402H302.027L285.995 139.714V162.402H278.214Z" fill="#FFD600"/>
<path d="M260.589 162.402V126.777H268.652V162.402H260.589Z" fill="#FFD600"/>
<path d="M217.652 162.402L231.527 126.777H241.464L255.339 162.402H246.714L244.183 155.371H228.62L226.089 162.402H217.652ZM231.152 148.433H241.652L236.402 133.808L231.152 148.433Z" fill="#FFD600"/>
<path d="M184.745 162.402V126.777H200.495C204.714 126.777 208.003 127.761 210.363 129.73C212.722 131.683 213.902 134.417 213.902 137.933C213.902 140.402 213.316 142.511 212.144 144.261C210.988 146.011 209.323 147.308 207.152 148.152L215.777 162.402H206.777L199.183 149.277H192.714V162.402H184.745ZM192.714 142.996H199.933C201.839 142.996 203.284 142.589 204.269 141.777C205.253 140.964 205.745 139.777 205.745 138.214C205.745 135.089 203.808 133.527 199.933 133.527H192.714V142.996Z" fill="#FFD600"/>
<path d="M146.402 162.402V126.777H154.464V141.871L168.714 126.777H178.745L164.87 140.746L179.308 162.402H169.745L159.152 146.464L154.464 151.152V162.402H146.402Z" fill="#FFD600"/>
<path d="M105.433 148.058V126.777H113.495V147.777C113.495 150.308 114.175 152.269 115.534 153.66C116.894 155.05 118.839 155.746 121.37 155.746C123.902 155.746 125.847 155.05 127.206 153.66C128.566 152.269 129.245 150.308 129.245 147.777V126.777H137.308V148.058C137.308 152.589 135.886 156.191 133.042 158.863C130.198 161.535 126.308 162.871 121.37 162.871C116.433 162.871 112.542 161.535 109.698 158.863C106.855 156.191 105.433 152.589 105.433 148.058Z" fill="#FFD600"/>
</svg>
