<svg width="70" height="149" viewBox="0 0 70 149" fill="none" xmlns="http://www.w3.org/2000/svg">
<path d="M69.3606 49.3842L69.3716 29.0957C68.1602 30.0471 66.4181 30.6489 63.6914 30.8336C63.9053 37.1436 65.9983 43.6531 69.3606 49.3842Z" fill="#0057B8"/>
<path d="M62.9188 23.3538C64.1382 19.9436 66.1442 16.6624 68.9988 13.6415C69.1267 13.4191 69.2536 13.2085 69.3806 13.003L69.3876 0.899414C69.3876 0.899414 66.523 5.88167 61.3965 13.8888C63.7573 18.4411 61.4255 20.2961 62.9188 23.3538Z" fill="#0057B8"/>
<path d="M63.6763 29.4046C65.5893 27.4453 65.3135 25.1632 69.3745 22.4283L69.3795 14.1848C69.0996 14.2801 63.7412 23.9497 63.6763 29.4046Z" fill="#0057B8"/>
<path d="M54.8706 131.601C63.0126 130.415 68.9417 120.604 69.3246 116.243L69.3266 111.527C67.0907 114.345 67.6784 117.725 58.0611 121.926C61.0806 114.962 60.5218 110.123 69.3275 109.361L69.3296 104.669C67.7113 93.9592 61.9151 83.2539 53.99 76.0193C60.9986 80.9877 66.271 87.3801 69.3355 94.3018L69.3585 52.0257C62.3829 43.7534 59.6133 33.4503 62.6948 24.0201C59.6553 22.6109 58.195 21.2346 57.6113 19.7102C52.6667 27.2089 46.3307 36.4028 38.9074 46.2749C43.802 51.4438 46.8475 57.4936 46.8475 57.4936C46.8475 57.4936 54.1669 71.8603 41.0193 73.0997C27.4139 70.3936 36.2357 61.8115 27.9487 48.6155C22.5214 40.7206 13.1309 43.389 9.43271 49.0693C7.31874 52.3117 7.45569 52.1469 2.14427 58.716C16.6982 64.9049 5.92346 79.7533 1.86444 87.8627C-2.19658 95.9702 0.479064 112.78 11.8435 119.285C23.209 125.789 39.584 123.257 45.3882 116.223C51.1924 109.191 58.0041 116.424 55.3783 123.144C52.7476 129.86 42.1218 126.336 51.4003 129.786C52.5727 130.22 53.7341 130.845 54.8706 131.601Z" fill="#0057B8"/>
<path d="M59.0825 135.061C64.9407 140.736 69.3065 148.411 69.3065 148.411L69.3215 121.288C67.9382 124.127 60.5488 133.912 59.0825 135.061Z" fill="#0057B8"/>
</svg>
